<!--
  - Copyright 2024 NGApps Dev (https://github.com/ngapp-dev). All rights reserved.
  -
  - Licensed under the Apache License, Version 2.0 (the "License");
  - you may not use this file except in compliance with the License.
  - You may obtain a copy of the License at
  -
  - http://www.apache.org/licenses/LICENSE-2.0
  -
  - Unless required by applicable law or agreed to in writing, software
  - distributed under the License is distributed on an "AS IS" BASIS,
  - WITHOUT WARRANTIES OR CONDITIONS OF ANY KIND, either express or implied.
  -
  - See the License for the specific language governing permissions and
  - limitations under the License.
  -->

<svg xmlns="http://www.w3.org/2000/svg" height="24px" viewBox="0 -960 960 960" width="24px" fill="#5f6368"><path d="m228-240 92-160q-66 0-113-47t-47-113q0-66 47-113t113-47q66 0 113 47t47 113q0 23-5.5 42.5T458-480L320-240h-92Zm360 0 92-160q-66 0-113-47t-47-113q0-66 47-113t113-47q66 0 113 47t47 113q0 23-5.5 42.5T818-480L680-240h-92Z"/></svg>