<?xml version="1.0" encoding="UTF-8"?>
<!--
  - Copyright 2024 NGApps Dev (https://github.com/ngapp-dev). All rights reserved.
  -
  - Licensed under the Apache License, Version 2.0 (the "License");
  - you may not use this file except in compliance with the License.
  - You may obtain a copy of the License at
  -
  - http://www.apache.org/licenses/LICENSE-2.0
  -
  - Unless required by applicable law or agreed to in writing, software
  - distributed under the License is distributed on an "AS IS" BASIS,
  - WITHOUT WARRANTIES OR CONDITIONS OF ANY KIND, either express or implied.
  -
  - See the License for the specific language governing permissions and
  - limitations under the License.
  -->

<svg xmlns="http://www.w3.org/2000/svg" version="1.1" xmlns:xlink="http://www.w3.org/1999/xlink" viewBox="0 0 250 250">
  <defs>
    <style>
      .cls-1 {
        fill: url(#linear-gradient-2);
      }

      .cls-2 {
        fill: #fff;
      }

      .cls-3 {
        fill: #1f4f98;
      }

      .cls-4 {
        fill: none;
      }

      .cls-5 {
        fill: url(#linear-gradient-3);
      }

      .cls-6 {
        clip-path: url(#clippath-1);
      }

      .cls-7 {
        clip-path: url(#clippath-3);
      }

      .cls-8 {
        clip-path: url(#clippath-2);
      }

      .cls-9 {
        fill: url(#linear-gradient);
      }

      .cls-10 {
        clip-path: url(#clippath);
      }
    </style>
    <clipPath id="clippath">
      <path class="cls-4" d="M211,204.8c-.4,1.5-1.2,2.7-2.3,3.5-1.1.8-2.7,1.2-4.7,1l-.9,6.6c5.3.9,9.2-.1,11.8-3s4-7.1,4-12.7v-17.1h-15.8v16.4h8.2c.2,1.9.1,3.6-.3,5.1Z"/>
    </clipPath>
    <linearGradient id="linear-gradient" x1="-925.6" y1="-527.2" x2="-809.2" y2="-527.2" gradientTransform="translate(1066.7 726.8)" gradientUnits="userSpaceOnUse">
      <stop offset="0" stop-color="#5185f8"/>
      <stop offset="0" stop-color="#b7ccec"/>
      <stop offset="1" stop-color="#b7ccec"/>
    </linearGradient>
    <clipPath id="clippath-1">
      <path class="cls-4" d="M187.6,204.8c-.4,1.5-1.2,2.7-2.3,3.5-1.1.8-2.7,1.2-4.7,1l-.9,6.6c5.2.9,9.2-.1,11.8-3,2.6-2.9,4-7.1,4-12.7v-17.1h-15.8v16.4h8.2c.2,1.9.1,3.6-.3,5.1Z"/>
    </clipPath>
    <clipPath id="clippath-2">
      <path class="cls-4" d="M49.9,54.5c.4-1.5,1.2-2.7,2.3-3.5,1.1-.8,2.7-1.2,4.7-1l.9-6.6c-5.3-.9-9.2.1-11.8,3s-4,7.1-4,12.7v17.1h15.8v-16.4h-8.2c-.2-1.9-.1-3.6.3-5.1Z"/>
    </clipPath>
    <linearGradient id="linear-gradient-2" x1="3.5" y1="59.6" x2="119.8" y2="59.6" gradientTransform="matrix(1,0,0,1,0,0)" xlink:href="#linear-gradient"/>
    <clipPath id="clippath-3">
      <path class="cls-4" d="M73.4,54.5c.4-1.5,1.2-2.7,2.3-3.5,1.1-.8,2.7-1.2,4.7-1l.9-6.6c-5.2-.9-9.2.1-11.8,3-2.6,2.9-4,7.1-4,12.7v17.1h15.8v-16.4h-8.2c-.2-1.9-.1-3.6.3-5.1Z"/>
    </clipPath>
    <linearGradient id="linear-gradient-3" x1="3.5" y1="59.6" x2="119.8" y2="59.6" gradientTransform="matrix(1,0,0,1,0,0)" xlink:href="#linear-gradient"/>
  </defs>
  <!-- Generator: Adobe Illustrator 28.7.1, SVG Export Plug-In . SVG Version: 1.2.0 Build 142)  -->
  <g>
    <g id="OBJECTS">
      <g>
        <g>
          <path class="cls-3" d="M183.3,30.7c-32.8-20.1-77.5,7.8-112.5,36.2C36.4,90.2,4.8,123.5,31.4,181.6c15.9,34.8,54.5,40.5,90,42.2,41.3,1.7,83.4-16.4,99.9-58.6,17.3-44,3.3-110.3-38-134.5Z"/>
          <g>
            <path class="cls-3" d="M44.5,80.9c-9.3,10.4-17.5,21.9-22.4,34.9-9.4,25.5-5.4,55.2,8.5,78.4,7.1,11.6,17.2,21.6,29.9,28.1-14-3.6-26.2-13.2-34.7-24.9-17-23.8-21.4-57.1-9-83.8,6.2-13.1,16-24.3,27.7-32.7h0Z"/>
            <path class="cls-3" d="M127.1,23.4c-5.8,3.9-11.5,7.3-17.4,10.8-6,3.4-11.9,6.9-18.5,9.1,9-9.8,22.5-18.7,35.9-19.9h0Z"/>
            <path class="cls-3" d="M216.1,52.9c-15-16.1-32.2-31.4-54.9-33.5-7.2-.9-14.7-.6-22.5,0,6.9-3.5,14.7-5.5,22.7-5.7,24.4-1.1,46.2,17.3,54.7,39.2h0Z"/>
            <path class="cls-3" d="M184.5,219.8c18.7-13.1,33.3-31.5,41.2-52.9,9.2-24.4,9.7-50.6,6.4-76.4,11.3,29.4,10,64.4-5.8,92-9.4,16.5-24.1,30.4-41.8,37.3h0Z"/>
            <path class="cls-3" d="M121.1,233.4c8.3-1.5,16.4-2.3,24.6-3.5,8.2-1.1,16.2-2.7,24.6-3.8-14.1,8.6-33.2,11.2-49.2,7.3h0Z"/>
          </g>
        </g>
        <g>
          <g>
            <path class="cls-2" d="M97.2,87.5c0,1.5-.2,2.7-.7,3.8-.5,1.1-1.1,1.9-2,2.6l2.6,2-2.1,1.8-3.3-2.7c-.4,0-.8,0-1.2,0-1.3,0-2.5-.3-3.5-.9s-1.8-1.5-2.4-2.7c-.6-1.2-.8-2.5-.8-4v-.8c0-1.5.3-2.9.8-4.1.6-1.2,1.3-2.1,2.4-2.7,1-.6,2.2-.9,3.5-.9s2.5.3,3.5.9c1,.6,1.8,1.5,2.4,2.7.6,1.2.8,2.5.8,4.1v.7ZM93.9,86.8c0-1.6-.3-2.9-.9-3.7s-1.4-1.3-2.5-1.3-1.9.4-2.5,1.3c-.6.8-.9,2.1-.9,3.7v.8c0,1.6.3,2.8.9,3.7s1.4,1.3,2.5,1.3,1.9-.4,2.5-1.3.9-2.1.9-3.7v-.8Z"/>
            <path class="cls-2" d="M111.9,79.3v10.3c0,1.7-.5,3.1-1.6,4.1-1.1,1-2.5,1.5-4.4,1.5s-3.3-.5-4.4-1.5-1.6-2.3-1.6-4v-10.4h3.2v10.3c0,1,.2,1.8.7,2.2.5.5,1.2.7,2,.7,1.8,0,2.7-1,2.8-2.9v-10.4h3.2Z"/>
            <path class="cls-2" d="M128,87.5c0,1.5-.3,2.9-.8,4s-1.3,2.1-2.3,2.7c-1,.6-2.2.9-3.5.9s-2.5-.3-3.5-.9-1.8-1.5-2.4-2.7c-.6-1.2-.8-2.5-.8-4v-.8c0-1.5.3-2.9.8-4.1.6-1.2,1.3-2.1,2.4-2.7,1-.6,2.2-.9,3.5-.9s2.5.3,3.5.9c1,.6,1.8,1.5,2.4,2.7.6,1.2.8,2.5.8,4.1v.7ZM124.7,86.8c0-1.6-.3-2.9-.9-3.7s-1.4-1.3-2.5-1.3-1.9.4-2.5,1.3c-.6.8-.9,2.1-.9,3.7v.8c0,1.6.3,2.8.9,3.7s1.4,1.3,2.5,1.3,1.9-.4,2.5-1.3.9-2.1.9-3.7v-.8Z"/>
            <path class="cls-2" d="M141.7,81.9h-4.8v13h-3.2v-13h-4.7v-2.6h12.7v2.6Z"/>
            <path class="cls-2" d="M153.5,88.2h-6.2v4.2h7.3v2.6h-10.5v-15.6h10.5v2.6h-7.2v3.7h6.2v2.5Z"/>
            <path class="cls-2" d="M165.2,90.8c0-.6-.2-1.1-.6-1.4-.4-.3-1.2-.7-2.3-1-1.1-.4-2-.7-2.7-1.1-1.8-1-2.7-2.3-2.7-3.9s.2-1.6.7-2.3c.5-.7,1.2-1.2,2.1-1.6.9-.4,1.9-.6,3-.6s2.1.2,3,.6c.9.4,1.6,1,2,1.7.5.7.7,1.6.7,2.5h-3.2c0-.7-.2-1.3-.7-1.7s-1.1-.6-1.9-.6-1.4.2-1.8.5-.7.8-.7,1.3.3.9.8,1.3c.5.3,1.3.7,2.3,1,1.8.6,3.2,1.2,4,2.1s1.3,1.8,1.3,3.1-.5,2.4-1.5,3.2c-1,.8-2.4,1.2-4.1,1.2s-2.3-.2-3.3-.7-1.7-1-2.3-1.8c-.5-.8-.8-1.7-.8-2.7h3.2c0,1.7,1,2.6,3.1,2.6s1.4-.2,1.8-.5.6-.7.6-1.3Z"/>
          </g>
          <g>
            <path class="cls-2" d="M76.2,115.1h-4.3v3.5h5v1.1h-6.3v-10h6.3v1.1h-4.9v3.2h4.3v1.1Z"/>
            <path class="cls-2" d="M81.2,115l1.6-2.7h1.5l-2.4,3.7,2.5,3.7h-1.5l-1.7-2.8-1.7,2.8h-1.5l2.5-3.7-2.4-3.7h1.5l1.6,2.7Z"/>
            <path class="cls-2" d="M92.2,116.1c0,1.1-.3,2-.8,2.7-.5.7-1.2,1-2.1,1s-1.6-.3-2.1-.9v3.6h-1.3v-10.2h1.2v.8c.6-.6,1.3-1,2.2-1s1.6.3,2.1,1c.5.7.8,1.6.8,2.8h0ZM91,115.9c0-.8-.2-1.5-.5-2-.4-.5-.8-.7-1.5-.7s-1.3.3-1.7,1v3.5c.4.7,1,1,1.7,1s1.1-.2,1.4-.7c.4-.5.5-1.2.5-2.1Z"/>
            <path class="cls-2" d="M95.6,119.7h-1.3v-10.5h1.3v10.5Z"/>
            <path class="cls-2" d="M97.6,115.9c0-.7.1-1.4.4-2,.3-.6.7-1,1.2-1.3.5-.3,1.1-.5,1.7-.5,1,0,1.8.3,2.4,1,.6.7.9,1.6.9,2.8h0c0,.8-.1,1.5-.4,2-.3.6-.7,1-1.2,1.3-.5.3-1.1.5-1.8.5-1,0-1.8-.3-2.4-1-.6-.7-.9-1.6-.9-2.8h0ZM98.9,116.1c0,.8.2,1.5.6,2,.4.5.9.7,1.5.7s1.2-.3,1.5-.8c.4-.5.6-1.2.6-2.1s-.2-1.5-.6-2c-.4-.5-.9-.8-1.5-.8s-1.1.2-1.5.7c-.4.5-.6,1.2-.6,2.1Z"/>
            <path class="cls-2" d="M109.8,113.4c-.2,0-.4,0-.6,0-.8,0-1.4.4-1.7,1.1v5.2h-1.3v-7.4h1.2v.9c.4-.7,1-1,1.8-1s.4,0,.6,0v1.2Z"/>
            <path class="cls-2" d="M114.3,119.8c-1,0-1.8-.3-2.4-1-.6-.7-.9-1.5-.9-2.6v-.2c0-.7.1-1.4.4-2,.3-.6.7-1,1.2-1.4.5-.3,1-.5,1.6-.5,1,0,1.7.3,2.2,1,.5.6.8,1.5.8,2.7v.5h-5c0,.7.2,1.3.6,1.8.4.4.9.7,1.6.7s.8,0,1.1-.3c.3-.2.6-.4.8-.7l.8.6c-.6,1-1.5,1.4-2.8,1.4ZM114.1,113.2c-.5,0-.9.2-1.3.6-.3.4-.6.9-.6,1.6h3.7c0-.7-.2-1.2-.5-1.6-.3-.4-.7-.5-1.3-.5Z"/>
            <path class="cls-2" d="M127.4,119.7c0-.1-.1-.4-.2-.8-.6.6-1.3.9-2.1.9s-1.3-.2-1.8-.6c-.5-.4-.7-.9-.7-1.6s.3-1.4.9-1.8c.6-.4,1.4-.6,2.5-.6h1.2v-.6c0-.4-.1-.8-.4-1.1-.3-.3-.7-.4-1.2-.4s-.8.1-1.1.3c-.3.2-.5.5-.5.8h-1.3c0-.4.1-.7.4-1.1.3-.3.6-.6,1.1-.8.4-.2.9-.3,1.5-.3.9,0,1.5.2,2,.6.5.4.7,1,.8,1.8v3.4c0,.7,0,1.2.3,1.6h0c0,.1-1.3.1-1.3.1ZM125.3,118.7c.4,0,.8-.1,1.1-.3s.6-.5.8-.8v-1.5h-1c-1.5,0-2.3.5-2.3,1.4s.1.7.4.9c.3.2.6.3,1,.3Z"/>
            <path class="cls-2" d="M137.5,118.8c.5,0,.8-.1,1.2-.4s.5-.6.6-1h1.2c0,.4-.2.8-.4,1.2s-.6.7-1.1.9c-.4.2-.9.3-1.4.3-1,0-1.8-.3-2.4-1-.6-.7-.9-1.6-.9-2.8v-.2c0-.7.1-1.4.4-1.9s.6-1,1.1-1.3c.5-.3,1.1-.5,1.8-.5s1.5.2,2.1.7c.5.5.8,1.1.9,1.9h-1.2c0-.5-.2-.9-.5-1.2-.3-.3-.7-.5-1.2-.5s-1.1.2-1.5.7c-.4.5-.5,1.1-.5,2v.2c0,.9.2,1.5.5,2,.4.5.9.7,1.5.7Z"/>
            <path class="cls-2" d="M146.8,118.9c-.5.6-1.2.9-2.2.9s-1.4-.2-1.8-.7c-.4-.5-.6-1.1-.6-2v-4.8h1.3v4.8c0,1.1.5,1.7,1.4,1.7s1.6-.4,1.9-1.1v-5.4h1.3v7.4h-1.2v-.7Z"/>
            <path class="cls-2" d="M153.9,113.4c-.2,0-.4,0-.6,0-.8,0-1.4.4-1.7,1.1v5.2h-1.3v-7.4h1.2v.9c.4-.7,1-1,1.8-1s.4,0,.6,0v1.2Z"/>
            <path class="cls-2" d="M159.7,119.7c0-.1-.1-.4-.2-.8-.6.6-1.3.9-2.1.9s-1.3-.2-1.8-.6c-.5-.4-.7-.9-.7-1.6s.3-1.4.9-1.8c.6-.4,1.4-.6,2.5-.6h1.2v-.6c0-.4-.1-.8-.4-1.1-.3-.3-.7-.4-1.2-.4s-.8.1-1.1.3c-.3.2-.5.5-.5.8h-1.3c0-.4.1-.7.4-1.1.3-.3.6-.6,1.1-.8.4-.2.9-.3,1.5-.3.9,0,1.5.2,2,.6.5.4.7,1,.8,1.8v3.4c0,.7,0,1.2.3,1.6h0c0,.1-1.3.1-1.3.1ZM157.6,118.7c.4,0,.8-.1,1.1-.3s.6-.5.8-.8v-1.5h-1c-1.5,0-2.3.5-2.3,1.4s.1.7.4.9c.3.2.6.3,1,.3Z"/>
            <path class="cls-2" d="M164.8,110.5v1.8h1.4v1h-1.4v4.6c0,.3,0,.5.2.7.1.1.3.2.6.2s.3,0,.6,0v1c-.3,0-.7.1-1,.1-.6,0-1-.2-1.3-.5s-.4-.8-.4-1.5v-4.6h-1.3v-1h1.3v-1.8h1.3Z"/>
            <path class="cls-2" d="M171.1,119.8c-1,0-1.8-.3-2.4-1-.6-.7-.9-1.5-.9-2.6v-.2c0-.7.1-1.4.4-2,.3-.6.7-1,1.2-1.4.5-.3,1-.5,1.6-.5,1,0,1.7.3,2.2,1,.5.6.8,1.5.8,2.7v.5h-5c0,.7.2,1.3.6,1.8.4.4.9.7,1.6.7s.8,0,1.1-.3c.3-.2.6-.4.8-.7l.8.6c-.6,1-1.5,1.4-2.8,1.4ZM170.9,113.2c-.5,0-.9.2-1.3.6-.3.4-.6.9-.6,1.6h3.7c0-.7-.2-1.2-.5-1.6-.3-.4-.7-.5-1.3-.5Z"/>
            <path class="cls-2" d="M175.5,115.9c0-1.1.3-2,.8-2.7s1.2-1,2.1-1,1.6.3,2.1.9v-3.9h1.3v10.5h-1.2v-.8c-.6.6-1.3.9-2.2.9s-1.6-.4-2.1-1.1c-.5-.7-.8-1.6-.8-2.7h0ZM176.8,116.1c0,.8.2,1.5.5,2,.3.5.8.7,1.4.7s1.4-.4,1.8-1.1v-3.4c-.4-.7-1-1-1.7-1s-1.1.2-1.4.7-.5,1.2-.5,2.1Z"/>
            <path class="cls-2" d="M59.3,135.6c.5,0,.8-.1,1.2-.4s.5-.6.6-1h1.2c0,.4-.2.8-.4,1.2s-.6.7-1.1.9c-.4.2-.9.3-1.4.3-1,0-1.8-.3-2.4-1-.6-.7-.9-1.6-.9-2.8v-.2c0-.7.1-1.4.4-1.9s.6-1,1.1-1.3c.5-.3,1.1-.5,1.8-.5s1.5.2,2.1.7c.5.5.8,1.1.9,1.9h-1.2c0-.5-.2-.9-.5-1.2-.3-.3-.7-.5-1.2-.5s-1.1.2-1.5.7c-.4.5-.5,1.1-.5,2v.2c0,.9.2,1.5.5,2,.4.5.9.7,1.5.7Z"/>
            <path class="cls-2" d="M63.7,132.7c0-.7.1-1.4.4-2,.3-.6.7-1,1.2-1.3.5-.3,1.1-.5,1.7-.5,1,0,1.8.3,2.4,1,.6.7.9,1.6.9,2.8h0c0,.8-.1,1.5-.4,2-.3.6-.7,1-1.2,1.3-.5.3-1.1.5-1.8.5-1,0-1.8-.3-2.4-1-.6-.7-.9-1.6-.9-2.8h0ZM65,132.9c0,.8.2,1.5.6,2,.4.5.9.7,1.5.7s1.2-.3,1.5-.8c.4-.5.6-1.2.6-2.1s-.2-1.5-.6-2c-.4-.5-.9-.8-1.5-.8s-1.1.2-1.5.7c-.4.5-.6,1.2-.6,2.1Z"/>
            <path class="cls-2" d="M73.8,136.5h-1.3v-10.5h1.3v10.5Z"/>
            <path class="cls-2" d="M77.5,136.5h-1.3v-10.5h1.3v10.5Z"/>
            <path class="cls-2" d="M83,136.6c-1,0-1.8-.3-2.4-1-.6-.7-.9-1.5-.9-2.6v-.2c0-.7.1-1.4.4-2,.3-.6.7-1,1.2-1.4.5-.3,1-.5,1.6-.5,1,0,1.7.3,2.2,1,.5.6.8,1.5.8,2.7v.5h-5c0,.7.2,1.3.6,1.8.4.4.9.7,1.6.7s.8,0,1.1-.3c.3-.2.6-.4.8-.7l.8.6c-.6,1-1.5,1.4-2.8,1.4ZM82.8,130c-.5,0-.9.2-1.3.6-.3.4-.6.9-.6,1.6h3.7c0-.7-.2-1.2-.5-1.6-.3-.4-.7-.5-1.3-.5Z"/>
            <path class="cls-2" d="M90.6,135.6c.5,0,.8-.1,1.2-.4s.5-.6.6-1h1.2c0,.4-.2.8-.4,1.2s-.6.7-1.1.9c-.4.2-.9.3-1.4.3-1,0-1.8-.3-2.4-1-.6-.7-.9-1.6-.9-2.8v-.2c0-.7.1-1.4.4-1.9s.6-1,1.1-1.3c.5-.3,1.1-.5,1.8-.5s1.5.2,2.1.7c.5.5.8,1.1.9,1.9h-1.2c0-.5-.2-.9-.5-1.2-.3-.3-.7-.5-1.2-.5s-1.1.2-1.5.7c-.4.5-.5,1.1-.5,2v.2c0,.9.2,1.5.5,2,.4.5.9.7,1.5.7Z"/>
            <path class="cls-2" d="M97,127.3v1.8h1.4v1h-1.4v4.6c0,.3,0,.5.2.7.1.1.3.2.6.2s.3,0,.6,0v1c-.3,0-.7.1-1,.1-.6,0-1-.2-1.3-.5s-.4-.8-.4-1.5v-4.6h-1.3v-1h1.3v-1.8h1.3Z"/>
            <path class="cls-2" d="M100.3,127.1c0-.2,0-.4.2-.5.1-.1.3-.2.6-.2s.4,0,.6.2c.1.1.2.3.2.5s0,.4-.2.5-.3.2-.6.2-.4,0-.6-.2c-.1-.1-.2-.3-.2-.5ZM101.6,136.5h-1.3v-7.4h1.3v7.4Z"/>
            <path class="cls-2" d="M103.7,132.7c0-.7.1-1.4.4-2,.3-.6.7-1,1.2-1.3.5-.3,1.1-.5,1.7-.5,1,0,1.8.3,2.4,1,.6.7.9,1.6.9,2.8h0c0,.8-.1,1.5-.4,2-.3.6-.7,1-1.2,1.3-.5.3-1.1.5-1.8.5-1,0-1.8-.3-2.4-1-.6-.7-.9-1.6-.9-2.8h0ZM104.9,132.9c0,.8.2,1.5.6,2,.4.5.9.7,1.5.7s1.2-.3,1.5-.8c.4-.5.6-1.2.6-2.1s-.2-1.5-.6-2c-.4-.5-.9-.8-1.5-.8s-1.1.2-1.5.7c-.4.5-.6,1.2-.6,2.1Z"/>
            <path class="cls-2" d="M113.5,129.1v.9c.6-.7,1.3-1.1,2.3-1.1,1.6,0,2.4.9,2.4,2.6v4.9h-1.3v-4.9c0-.5-.1-.9-.4-1.2-.2-.3-.6-.4-1.1-.4s-.8.1-1.1.3-.6.5-.7.9v5.3h-1.3v-7.4h1.2Z"/>
            <path class="cls-2" d="M123.9,132.7c0-.7.1-1.4.4-2,.3-.6.7-1,1.2-1.3.5-.3,1.1-.5,1.7-.5,1,0,1.8.3,2.4,1,.6.7.9,1.6.9,2.8h0c0,.8-.1,1.5-.4,2-.3.6-.7,1-1.2,1.3-.5.3-1.1.5-1.8.5-1,0-1.8-.3-2.4-1-.6-.7-.9-1.6-.9-2.8h0ZM125.2,132.9c0,.8.2,1.5.6,2,.4.5.9.7,1.5.7s1.2-.3,1.5-.8c.4-.5.6-1.2.6-2.1s-.2-1.5-.6-2c-.4-.5-.9-.8-1.5-.8s-1.1.2-1.5.7c-.4.5-.6,1.2-.6,2.1Z"/>
            <path class="cls-2" d="M133.2,136.5v-6.4h-1.2v-1h1.2v-.8c0-.8.2-1.4.6-1.8.4-.4,1-.6,1.8-.6s.6,0,.9.1v1c-.3,0-.5,0-.8,0-.4,0-.7.1-1,.4s-.3.6-.3,1v.8h1.6v1h-1.6v6.4h-1.3Z"/>
            <path class="cls-2" d="M141.6,127.1c0-.2,0-.4.2-.5.1-.1.3-.2.6-.2s.4,0,.6.2c.1.1.2.3.2.5s0,.4-.2.5-.3.2-.6.2-.4,0-.6-.2c-.1-.1-.2-.3-.2-.5ZM143,136.5h-1.3v-7.4h1.3v7.4Z"/>
            <path class="cls-2" d="M146.5,129.1v.9c.6-.7,1.3-1.1,2.3-1.1,1.6,0,2.4.9,2.4,2.6v4.9h-1.3v-4.9c0-.5-.1-.9-.4-1.2-.2-.3-.6-.4-1.1-.4s-.8.1-1.1.3-.6.5-.7.9v5.3h-1.3v-7.4h1.2Z"/>
            <path class="cls-2" d="M157.7,134.5c0-.3-.1-.6-.4-.8-.3-.2-.7-.4-1.3-.5-.6-.1-1.1-.3-1.5-.5-.4-.2-.7-.4-.8-.7-.2-.3-.3-.6-.3-.9,0-.6.3-1.1.8-1.5.5-.4,1.2-.6,2-.6s1.5.2,2,.6c.5.4.8,1,.8,1.7h-1.3c0-.3-.1-.6-.4-.9-.3-.2-.7-.4-1.1-.4s-.8.1-1.1.3c-.3.2-.4.5-.4.8s.1.5.4.7c.2.2.7.3,1.3.4.6.1,1.1.3,1.5.5.4.2.7.4.9.7.2.3.3.6.3,1,0,.7-.3,1.2-.8,1.6-.5.4-1.2.6-2.1.6s-1.1-.1-1.6-.3c-.5-.2-.8-.5-1.1-.9-.3-.4-.4-.8-.4-1.2h1.3c0,.4.2.8.5,1,.3.2.7.4,1.3.4s.9,0,1.2-.3c.3-.2.4-.5.4-.8Z"/>
            <path class="cls-2" d="M167.2,132.9c0,1.1-.3,2-.8,2.7-.5.7-1.2,1-2.1,1s-1.6-.3-2.1-.9v3.6h-1.3v-10.2h1.2v.8c.6-.6,1.3-1,2.2-1s1.6.3,2.1,1c.5.7.8,1.6.8,2.8h0ZM166,132.7c0-.8-.2-1.5-.5-2-.4-.5-.8-.7-1.5-.7s-1.3.3-1.7,1v3.5c.4.7,1,1,1.7,1s1.1-.2,1.4-.7c.4-.5.5-1.2.5-2.1Z"/>
            <path class="cls-2" d="M169.2,127.1c0-.2,0-.4.2-.5.1-.1.3-.2.6-.2s.4,0,.6.2c.1.1.2.3.2.5s0,.4-.2.5-.3.2-.6.2-.4,0-.6-.2c-.1-.1-.2-.3-.2-.5ZM170.6,136.5h-1.3v-7.4h1.3v7.4Z"/>
            <path class="cls-2" d="M176.5,130.2c-.2,0-.4,0-.6,0-.8,0-1.4.4-1.7,1.1v5.2h-1.3v-7.4h1.2v.9c.4-.7,1-1,1.8-1s.4,0,.6,0v1.2Z"/>
            <path class="cls-2" d="M178,127.1c0-.2,0-.4.2-.5.1-.1.3-.2.6-.2s.4,0,.6.2c.1.1.2.3.2.5s0,.4-.2.5-.3.2-.6.2-.4,0-.6-.2c-.1-.1-.2-.3-.2-.5ZM179.4,136.5h-1.3v-7.4h1.3v7.4Z"/>
            <path class="cls-2" d="M183,129.1v.9c.6-.7,1.3-1.1,2.3-1.1,1.6,0,2.4.9,2.4,2.6v4.9h-1.3v-4.9c0-.5-.1-.9-.4-1.2-.2-.3-.6-.4-1.1-.4s-.8.1-1.1.3-.6.5-.7.9v5.3h-1.3v-7.4h1.2Z"/>
            <path class="cls-2" d="M189.5,132.7c0-1.2.3-2.1.8-2.8.5-.7,1.2-1,2.1-1s1.6.3,2.1,1v-.8h1.2v7.2c0,1-.3,1.7-.9,2.3-.6.6-1.3.8-2.3.8s-1.1-.1-1.6-.3c-.5-.2-.9-.5-1.2-.9l.7-.8c.5.7,1.2,1,2,1s1.1-.2,1.4-.5c.3-.3.5-.8.5-1.5v-.6c-.5.6-1.2.9-2.1.9s-1.6-.3-2.1-1c-.5-.7-.8-1.6-.8-2.9ZM190.8,132.9c0,.8.2,1.5.5,2,.3.5.8.7,1.4.7s1.4-.4,1.8-1.1v-3.4c-.4-.7-1-1.1-1.7-1.1s-1.1.2-1.4.7-.5,1.2-.5,2.1Z"/>
            <path class="cls-2" d="M63,149.5c0-1.2.3-2.1.8-2.8s1.2-1,2.1-1,1.6.3,2.1.9v-.7h1.2v10.2h-1.3v-3.5c-.5.5-1.2.8-2,.8s-1.6-.3-2.1-1c-.5-.7-.8-1.6-.8-2.8h0ZM64.3,149.7c0,.8.2,1.5.5,2,.4.5.8.7,1.4.7s1.3-.3,1.7-1v-3.6c-.4-.7-1-1-1.7-1s-1.1.2-1.5.7-.5,1.2-.5,2.2Z"/>
            <path class="cls-2" d="M76.2,152.5c-.5.6-1.2.9-2.2.9s-1.4-.2-1.8-.7c-.4-.5-.6-1.1-.6-2v-4.8h1.3v4.8c0,1.1.5,1.7,1.4,1.7s1.6-.4,1.9-1.1v-5.4h1.3v7.4h-1.2v-.7Z"/>
            <path class="cls-2" d="M79.4,149.5c0-.7.1-1.4.4-2,.3-.6.7-1,1.2-1.3.5-.3,1.1-.5,1.7-.5,1,0,1.8.3,2.4,1,.6.7.9,1.6.9,2.8h0c0,.8-.1,1.5-.4,2-.3.6-.7,1-1.2,1.3-.5.3-1.1.5-1.8.5-1,0-1.8-.3-2.4-1-.6-.7-.9-1.6-.9-2.8h0ZM80.7,149.7c0,.8.2,1.5.6,2,.4.5.9.7,1.5.7s1.2-.3,1.5-.8c.4-.5.6-1.2.6-2.1s-.2-1.5-.6-2c-.4-.5-.9-.8-1.5-.8s-1.1.2-1.5.7c-.4.5-.6,1.2-.6,2.1Z"/>
            <path class="cls-2" d="M89.8,144.1v1.8h1.4v1h-1.4v4.6c0,.3,0,.5.2.7s.3.2.6.2.3,0,.6,0v1c-.3,0-.7.1-1,.1-.6,0-1-.2-1.3-.5s-.4-.8-.4-1.5v-4.6h-1.3v-1h1.3v-1.8h1.3Z"/>
            <path class="cls-2" d="M96.1,153.4c-1,0-1.8-.3-2.4-1-.6-.7-.9-1.5-.9-2.6v-.2c0-.7.1-1.4.4-2,.3-.6.7-1,1.2-1.4.5-.3,1-.5,1.6-.5,1,0,1.7.3,2.2,1,.5.6.8,1.5.8,2.7v.5h-5c0,.7.2,1.3.6,1.8.4.4.9.7,1.6.7s.8,0,1.1-.3c.3-.2.6-.4.8-.7l.8.6c-.6,1-1.5,1.4-2.8,1.4ZM95.9,146.8c-.5,0-.9.2-1.3.6-.3.4-.6.9-.6,1.6h3.7c0-.7-.2-1.2-.5-1.6-.3-.4-.7-.5-1.3-.5Z"/>
            <path class="cls-2" d="M105.1,151.3c0-.3-.1-.6-.4-.8-.3-.2-.7-.4-1.3-.5-.6-.1-1.1-.3-1.5-.5-.4-.2-.7-.4-.8-.7-.2-.3-.3-.6-.3-.9,0-.6.3-1.1.8-1.5.5-.4,1.2-.6,2-.6s1.5.2,2,.6c.5.4.8,1,.8,1.7h-1.3c0-.3-.1-.6-.4-.9-.3-.3-.7-.4-1.1-.4s-.8,0-1.1.3c-.3.2-.4.5-.4.8s.1.5.4.7c.2.2.7.3,1.3.4.6.1,1.1.3,1.5.5.4.2.7.4.9.7.2.3.3.6.3,1,0,.7-.3,1.2-.8,1.6-.5.4-1.2.6-2.1.6s-1.1-.1-1.6-.3c-.5-.2-.8-.5-1.1-.9-.3-.4-.4-.8-.4-1.2h1.3c0,.4.2.8.5,1,.3.2.7.4,1.3.4s.9,0,1.2-.3c.3-.2.4-.5.4-.8Z"/>
            <path class="cls-2" d="M113.8,144.1v1.8h1.4v1h-1.4v4.6c0,.3,0,.5.2.7s.3.2.6.2.3,0,.6,0v1c-.3,0-.7.1-1,.1-.6,0-1-.2-1.3-.5s-.4-.8-.4-1.5v-4.6h-1.3v-1h1.3v-1.8h1.3Z"/>
            <path class="cls-2" d="M116.6,149.5c0-.7.1-1.4.4-2,.3-.6.7-1,1.2-1.3.5-.3,1.1-.5,1.7-.5,1,0,1.8.3,2.4,1,.6.7.9,1.6.9,2.8h0c0,.8-.1,1.5-.4,2-.3.6-.7,1-1.2,1.3-.5.3-1.1.5-1.8.5-1,0-1.8-.3-2.4-1-.6-.7-.9-1.6-.9-2.8h0ZM117.9,149.7c0,.8.2,1.5.6,2,.4.5.9.7,1.5.7s1.2-.3,1.5-.8c.4-.5.6-1.2.6-2.1s-.2-1.5-.6-2c-.4-.5-.9-.8-1.5-.8s-1.1.2-1.5.7c-.4.5-.6,1.2-.6,2.1Z"/>
            <path class="cls-2" d="M133.6,152.5c-.5.6-1.2.9-2.2.9s-1.4-.2-1.8-.7c-.4-.5-.6-1.1-.6-2v-4.8h1.3v4.8c0,1.1.5,1.7,1.4,1.7s1.6-.4,1.9-1.1v-5.4h1.3v7.4h-1.2v-.7Z"/>
            <path class="cls-2" d="M143.4,149.7c0,1.1-.3,2-.8,2.7-.5.7-1.2,1-2.1,1s-1.6-.3-2.1-.9v3.6h-1.3v-10.2h1.2v.8c.6-.6,1.3-1,2.2-1s1.6.3,2.1,1c.5.7.8,1.6.8,2.8h0ZM142.1,149.5c0-.8-.2-1.5-.5-2-.4-.5-.8-.7-1.5-.7s-1.3.3-1.7,1v3.5c.4.7,1,1,1.7,1s1.1-.2,1.4-.7c.4-.5.5-1.2.5-2.1Z"/>
            <path class="cls-2" d="M146.7,153.3h-1.3v-10.5h1.3v10.5Z"/>
            <path class="cls-2" d="M149.1,143.9c0-.2,0-.4.2-.5.1-.1.3-.2.6-.2s.4,0,.6.2c.1.1.2.3.2.5s0,.4-.2.5-.3.2-.6.2-.4,0-.6-.2c-.1-.1-.2-.3-.2-.5ZM150.5,153.3h-1.3v-7.4h1.3v7.4Z"/>
            <path class="cls-2" d="M153.5,153.3v-6.4h-1.2v-1h1.2v-.8c0-.8.2-1.4.6-1.8.4-.4,1-.6,1.8-.6s.6,0,.9.1v1c-.3,0-.5,0-.8,0-.4,0-.7.1-1,.4-.2.2-.3.6-.3,1v.8h1.6v1h-1.6v6.4h-1.3Z"/>
            <path class="cls-2" d="M159.8,144.1v1.8h1.4v1h-1.4v4.6c0,.3,0,.5.2.7s.3.2.6.2.3,0,.6,0v1c-.3,0-.7.1-1,.1-.6,0-1-.2-1.3-.5s-.4-.8-.4-1.5v-4.6h-1.3v-1h1.3v-1.8h1.3Z"/>
            <path class="cls-2" d="M171.4,153.3c0-.1-.1-.4-.2-.8-.6.6-1.3.9-2.1.9s-1.3-.2-1.8-.6c-.5-.4-.7-.9-.7-1.6s.3-1.4.9-1.8c.6-.4,1.4-.6,2.5-.6h1.2v-.6c0-.4-.1-.8-.4-1.1-.3-.3-.7-.4-1.2-.4s-.8.1-1.1.3c-.3.2-.5.5-.5.8h-1.3c0-.4.1-.7.4-1.1.3-.3.6-.6,1.1-.8.4-.2.9-.3,1.5-.3.9,0,1.5.2,2,.6.5.4.7,1,.8,1.8v3.4c0,.7,0,1.2.3,1.6h0c0,.1-1.3.1-1.3.1ZM169.3,152.3c.4,0,.8-.1,1.1-.3s.6-.5.8-.8v-1.5h-1c-1.5,0-2.3.5-2.3,1.4s.1.7.4.9c.3.2.6.3,1,.3Z"/>
            <path class="cls-2" d="M175.9,145.9v.9c.6-.7,1.3-1.1,2.3-1.1,1.6,0,2.4.9,2.4,2.6v4.9h-1.3v-4.9c0-.5-.1-.9-.4-1.2-.2-.3-.6-.4-1.1-.4s-.8.1-1.1.3-.6.5-.7.9v5.3h-1.3v-7.4h1.2Z"/>
            <path class="cls-2" d="M182.5,149.5c0-1.1.3-2,.8-2.7s1.2-1,2.1-1,1.6.3,2.1.9v-3.9h1.3v10.5h-1.2v-.8c-.6.6-1.3.9-2.2.9s-1.6-.4-2.1-1.1c-.5-.7-.8-1.6-.8-2.7h0ZM183.8,149.7c0,.8.2,1.5.5,2,.3.5.8.7,1.4.7s1.4-.4,1.8-1.1v-3.4c-.4-.7-1-1-1.7-1s-1.1.2-1.4.7-.5,1.2-.5,2.1Z"/>
            <path class="cls-2" d="M86.2,162.7v.8c.6-.6,1.3-1,2.2-1s1.7.4,2.1,1.2c.2-.4.6-.6,1-.9.4-.2.9-.3,1.4-.3,1.6,0,2.4.9,2.5,2.6v5h-1.3v-4.9c0-.5-.1-.9-.4-1.2-.2-.3-.6-.4-1.2-.4s-.9.1-1.2.4-.5.7-.5,1.1v4.9h-1.3v-4.8c0-1.1-.5-1.6-1.6-1.6s-1.4.4-1.7,1.1v5.4h-1.3v-7.4h1.2Z"/>
            <path class="cls-2" d="M97.3,166.3c0-.7.1-1.4.4-2,.3-.6.7-1,1.2-1.3.5-.3,1.1-.5,1.7-.5,1,0,1.8.3,2.4,1,.6.7.9,1.6.9,2.8h0c0,.8-.1,1.5-.4,2-.3.6-.7,1-1.2,1.3-.5.3-1.1.5-1.8.5-1,0-1.8-.3-2.4-1-.6-.7-.9-1.6-.9-2.8h0ZM98.6,166.5c0,.8.2,1.5.6,2,.4.5.9.7,1.5.7s1.2-.3,1.5-.8c.4-.5.6-1.2.6-2.1s-.2-1.5-.6-2c-.4-.5-.9-.8-1.5-.8s-1.1.2-1.5.7c-.4.5-.6,1.2-.6,2.1Z"/>
            <path class="cls-2" d="M107.7,160.9v1.8h1.4v1h-1.4v4.6c0,.3,0,.5.2.7s.3.2.6.2.3,0,.6,0v1c-.3,0-.7.1-1,.1-.6,0-1-.2-1.3-.5s-.4-.8-.4-1.5v-4.6h-1.3v-1h1.3v-1.8h1.3Z"/>
            <path class="cls-2" d="M110.9,160.7c0-.2,0-.4.2-.5.1-.1.3-.2.6-.2s.4,0,.6.2c.1.1.2.3.2.5s0,.4-.2.5-.3.2-.6.2-.4,0-.6-.2c-.1-.1-.2-.3-.2-.5ZM112.3,170.1h-1.3v-7.4h1.3v7.4Z"/>
            <path class="cls-2" d="M117.1,168.4l1.8-5.7h1.3l-2.7,7.4h-1l-2.7-7.4h1.3l1.9,5.7Z"/>
            <path class="cls-2" d="M126.2,170.1c0-.1-.1-.4-.2-.8-.6.6-1.3.9-2.1.9s-1.3-.2-1.8-.6c-.5-.4-.7-.9-.7-1.6s.3-1.4.9-1.8c.6-.4,1.4-.6,2.5-.6h1.2v-.6c0-.4-.1-.8-.4-1.1-.3-.3-.7-.4-1.2-.4s-.8.1-1.1.3c-.3.2-.5.5-.5.8h-1.3c0-.4.1-.7.4-1.1.3-.3.6-.6,1.1-.8.4-.2.9-.3,1.5-.3.9,0,1.5.2,2,.6.5.4.7,1,.8,1.8v3.4c0,.7,0,1.2.3,1.6h0c0,.1-1.3.1-1.3.1ZM124.1,169.1c.4,0,.8-.1,1.1-.3s.6-.5.8-.8v-1.5h-1c-1.5,0-2.3.5-2.3,1.4s.1.7.4.9c.3.2.6.3,1,.3Z"/>
            <path class="cls-2" d="M131.3,160.9v1.8h1.4v1h-1.4v4.6c0,.3,0,.5.2.7s.3.2.6.2.3,0,.6,0v1c-.3,0-.7.1-1,.1-.6,0-1-.2-1.3-.5s-.4-.8-.4-1.5v-4.6h-1.3v-1h1.3v-1.8h1.3Z"/>
            <path class="cls-2" d="M137.6,170.2c-1,0-1.8-.3-2.4-1-.6-.7-.9-1.5-.9-2.6v-.2c0-.7.1-1.4.4-2,.3-.6.7-1,1.2-1.4.5-.3,1-.5,1.6-.5,1,0,1.7.3,2.2,1,.5.6.8,1.5.8,2.7v.5h-5c0,.7.2,1.3.6,1.8.4.4.9.7,1.6.7s.8,0,1.1-.3c.3-.2.6-.4.8-.7l.8.6c-.6,1-1.5,1.4-2.8,1.4ZM137.5,163.6c-.5,0-.9.2-1.3.6-.3.4-.6.9-.6,1.6h3.7c0-.7-.2-1.2-.5-1.6-.3-.4-.7-.5-1.3-.5Z"/>
            <path class="cls-2" d="M148.6,168.2l1.7-5.5h1.4l-3,8.5c-.5,1.2-1.2,1.8-2.2,1.8h-.2s-.5-.1-.5-.1v-1h.3c.4,0,.8,0,1-.2.2-.2.4-.5.6-1l.3-.8-2.6-7.3h1.4l1.8,5.5Z"/>
            <path class="cls-2" d="M152.7,166.3c0-.7.1-1.4.4-2,.3-.6.7-1,1.2-1.3.5-.3,1.1-.5,1.7-.5,1,0,1.8.3,2.4,1,.6.7.9,1.6.9,2.8h0c0,.8-.1,1.5-.4,2-.3.6-.7,1-1.2,1.3-.5.3-1.1.5-1.8.5-1,0-1.8-.3-2.4-1-.6-.7-.9-1.6-.9-2.8h0ZM153.9,166.5c0,.8.2,1.5.6,2,.4.5.9.7,1.5.7s1.2-.3,1.5-.8c.4-.5.6-1.2.6-2.1s-.2-1.5-.6-2c-.4-.5-.9-.8-1.5-.8s-1.1.2-1.5.7c-.4.5-.6,1.2-.6,2.1Z"/>
            <path class="cls-2" d="M165.9,169.3c-.5.6-1.2.9-2.2.9s-1.4-.2-1.8-.7c-.4-.5-.6-1.1-.6-2v-4.8h1.3v4.8c0,1.1.5,1.7,1.4,1.7s1.6-.4,1.9-1.1v-5.4h1.3v7.4h-1.2v-.7Z"/>
          </g>
        </g>
      </g>
      <g class="cls-10">
        <rect class="cls-9" x="141.1" y="141.4" width="116.3" height="116.3" transform="translate(398.6 399.2) rotate(180)"/>
      </g>
      <g class="cls-6">
        <rect class="cls-9" x="141.1" y="141.4" width="116.3" height="116.3" transform="translate(398.6 399.2) rotate(180)"/>
      </g>
      <g class="cls-8">
        <rect class="cls-1" x="3.5" y="1.5" width="116.3" height="116.3"/>
      </g>
      <g class="cls-7">
        <rect class="cls-5" x="3.5" y="1.5" width="116.3" height="116.3"/>
      </g>
    </g>
  </g>
</svg>