<?xml version="1.0" encoding="UTF-8"?>
<!--
  - Copyright 2024 NGApps Dev (https://github.com/ngapp-dev). All rights reserved.
  -
  - Licensed under the Apache License, Version 2.0 (the "License");
  - you may not use this file except in compliance with the License.
  - You may obtain a copy of the License at
  -
  - http://www.apache.org/licenses/LICENSE-2.0
  -
  - Unless required by applicable law or agreed to in writing, software
  - distributed under the License is distributed on an "AS IS" BASIS,
  - WITHOUT WARRANTIES OR CONDITIONS OF ANY KIND, either express or implied.
  -
  - See the License for the specific language governing permissions and
  - limitations under the License.
  -->

<svg xmlns="http://www.w3.org/2000/svg" version="1.1" xmlns:xlink="http://www.w3.org/1999/xlink" viewBox="0 0 250 250">
  <defs>
    <style>
      .cls-1 {
        fill: url(#linear-gradient-2);
      }

      .cls-2 {
        fill: #fff;
      }

      .cls-3 {
        fill: #1f4f98;
      }

      .cls-4 {
        fill: none;
      }

      .cls-5 {
        fill: url(#linear-gradient-3);
      }

      .cls-6 {
        clip-path: url(#clippath-1);
      }

      .cls-7 {
        clip-path: url(#clippath-3);
      }

      .cls-8 {
        clip-path: url(#clippath-2);
      }

      .cls-9 {
        fill: url(#linear-gradient);
      }

      .cls-10 {
        clip-path: url(#clippath);
      }
    </style>
    <clipPath id="clippath">
      <path class="cls-4" d="M219.5,195.4c-.4,1.5-1.2,2.7-2.3,3.5-1.1.8-2.7,1.2-4.7,1l-.9,6.6c5.3.9,9.2-.1,11.8-3s4-7.1,4-12.7v-17.1h-15.8v16.4h8.2c.2,1.9.1,3.6-.3,5.1Z"/>
    </clipPath>
    <linearGradient id="linear-gradient" x1="-394.1" y1="-517.8" x2="-277.7" y2="-517.8" gradientTransform="translate(543.7 708)" gradientUnits="userSpaceOnUse">
      <stop offset="0" stop-color="#5185f8"/>
      <stop offset="0" stop-color="#b7ccec"/>
      <stop offset="1" stop-color="#b7ccec"/>
    </linearGradient>
    <clipPath id="clippath-1">
      <path class="cls-4" d="M196.1,195.4c-.4,1.5-1.2,2.7-2.3,3.5-1.1.8-2.7,1.2-4.7,1l-.9,6.6c5.2.9,9.2-.1,11.8-3,2.6-2.9,4-7.1,4-12.7v-17.1h-15.8v16.4h8.2c.2,1.9.1,3.6-.3,5.1Z"/>
    </clipPath>
    <clipPath id="clippath-2">
      <path class="cls-4" d="M38.3,43c.4-1.5,1.2-2.7,2.3-3.5,1.1-.8,2.7-1.2,4.7-1l.9-6.6c-5.3-.9-9.2.1-11.8,3s-4,7.1-4,12.7v17.1h15.8v-16.4h-8.2c-.2-1.9-.1-3.6.3-5.1Z"/>
    </clipPath>
    <linearGradient id="linear-gradient-2" x1="-8.2" y1="48.2" x2="108.2" y2="48.2" gradientTransform="matrix(1,0,0,1,0,0)" xlink:href="#linear-gradient"/>
    <clipPath id="clippath-3">
      <path class="cls-4" d="M61.7,43c.4-1.5,1.2-2.7,2.3-3.5,1.1-.8,2.7-1.2,4.7-1l.9-6.6c-5.2-.9-9.2.1-11.8,3-2.6,2.9-4,7.1-4,12.7v17.1h15.8v-16.4h-8.2c-.2-1.9-.1-3.6.3-5.1Z"/>
    </clipPath>
    <linearGradient id="linear-gradient-3" x1="-8.2" y1="48.2" x2="108.2" y2="48.2" gradientTransform="matrix(1,0,0,1,0,0)" xlink:href="#linear-gradient"/>
  </defs>
  <!-- Generator: Adobe Illustrator 28.7.1, SVG Export Plug-In . SVG Version: 1.2.0 Build 142)  -->
  <g>
    <g id="OBJECTS">
      <g>
        <g>
          <path class="cls-3" d="M160.5,47.2c-23.3,0-41.3-3.8-63.7-9.5-24.2-6.6-57.4,4.7-69.9,28.4-12.6,21.8-13.5,59.6-9.9,85.2,3.4,35.7,45.7,52.8,88.1,57.9,29.8,8.3,56.6,6.7,85-11.5,71.7-45.4,54.7-146.7-29.6-150.5Z"/>
          <g>
            <path class="cls-3" d="M243.7,108.3c-5.9-19-16.4-36.2-32.2-48.2-14-10.7-30.6-16.1-47.9-19.7,9.6-1.1,19.5-.3,29,2.4,28.9,7.6,51.5,35.4,51.2,65.4h0Z"/>
            <path class="cls-3" d="M236.2,158.8c1.9-8.7,3.5-18,5.5-26.6.7-3,1.6-6,2.9-8.9,1.1,6.2.9,12.4-.2,18.6-1.2,6.1-3.6,12.4-8.1,16.9h0Z"/>
            <path class="cls-3" d="M119.9,220.3c31.5,1.5,62.4-8.2,87.1-27.6,8.2-6.3,15.7-13.7,23-21.6-4.7,9.7-11.2,18.5-19.1,26.1-23.4,22.6-59.5,33.5-90.9,23.2h0Z"/>
            <path class="cls-3" d="M11.3,77.2c-2.8,17.5-2.3,34.4-2.1,51.9,0,17.4-.1,34.4,8.2,50.2-3.3-3-6-6.7-8.1-10.7-6.3-12-7.4-26.3-7.4-39.4,0-17.5,1.1-36.2,9.6-52h0Z"/>
            <path class="cls-3" d="M94.3,30.2c-22.3-1.8-43.9,5.2-61.3,19-5.8,4.5-11,9.7-16.1,15.6,2.4-7.4,6.8-14.1,12.2-19.9,16-17.1,43.6-25.3,65.3-14.7h0Z"/>
          </g>
        </g>
        <g>
          <g>
            <path class="cls-2" d="M78.7,81.5h-5.7l-1.1,3.2h-3.4l5.8-15.6h3l5.9,15.6h-3.4l-1.1-3.2ZM74,78.9h3.9l-2-5.9-1.9,5.9Z"/>
            <path class="cls-2" d="M96.9,69.1v10.3c0,1.7-.5,3.1-1.6,4.1s-2.5,1.5-4.4,1.5-3.3-.5-4.4-1.5-1.6-2.3-1.6-4v-10.4h3.2v10.3c0,1,.2,1.8.7,2.2.5.5,1.2.7,2,.7,1.8,0,2.7-1,2.8-2.9v-10.4h3.2Z"/>
            <path class="cls-2" d="M111.9,71.7h-4.8v13h-3.2v-13h-4.7v-2.6h12.7v2.6Z"/>
            <path class="cls-2" d="M127,84.8h-3.2v-6.7h-6.3v6.7h-3.2v-15.6h3.2v6.3h6.3v-6.3h3.2v15.6Z"/>
            <path class="cls-2" d="M143.2,77.3c0,1.5-.3,2.9-.8,4-.5,1.2-1.3,2.1-2.3,2.7s-2.2.9-3.5.9-2.5-.3-3.5-.9c-1-.6-1.8-1.5-2.4-2.7-.6-1.2-.8-2.5-.8-4v-.8c0-1.5.3-2.9.8-4.1.6-1.2,1.3-2.1,2.4-2.7,1-.6,2.2-.9,3.5-.9s2.5.3,3.5.9c1,.6,1.8,1.5,2.4,2.7.6,1.2.8,2.5.8,4.1v.7ZM140,76.6c0-1.6-.3-2.9-.9-3.7-.6-.9-1.4-1.3-2.5-1.3s-1.9.4-2.5,1.3c-.6.8-.9,2.1-.9,3.7v.8c0,1.6.3,2.8.9,3.7.6.9,1.4,1.3,2.5,1.3s1.9-.4,2.5-1.3c.6-.8.9-2.1.9-3.7v-.8Z"/>
            <path class="cls-2" d="M151.9,79h-2.6v5.7h-3.2v-15.6h5.8c1.8,0,3.3.4,4.3,1.2s1.5,2,1.5,3.5-.2,2-.7,2.7c-.5.7-1.2,1.3-2.1,1.7l3.4,6.4v.2h-3.5l-2.9-5.7ZM149.3,76.4h2.6c.8,0,1.4-.2,1.9-.6.4-.4.7-1,.7-1.7s-.2-1.3-.6-1.7c-.4-.4-1.1-.6-1.9-.6h-2.6v4.7Z"/>
            <path class="cls-2" d="M168.8,80.6c0-.6-.2-1.1-.6-1.4-.4-.3-1.2-.7-2.3-1-1.1-.4-2-.7-2.7-1.1-1.8-1-2.7-2.3-2.7-3.9s.2-1.6.7-2.3c.5-.7,1.2-1.2,2.1-1.6.9-.4,1.9-.6,3-.6s2.1.2,3,.6c.9.4,1.6,1,2,1.7.5.7.7,1.6.7,2.5h-3.2c0-.7-.2-1.3-.7-1.7-.5-.4-1.1-.6-1.9-.6s-1.4.2-1.8.5c-.4.3-.7.8-.7,1.3s.3.9.8,1.3c.5.3,1.3.7,2.3,1,1.8.6,3.2,1.2,4,2.1s1.3,1.8,1.3,3.1-.5,2.4-1.5,3.2c-1,.8-2.4,1.2-4.1,1.2s-2.3-.2-3.3-.7c-1-.4-1.7-1-2.3-1.8-.5-.8-.8-1.7-.8-2.7h3.2c0,1.7,1,2.6,3.1,2.6s1.4-.2,1.8-.5c.4-.3.6-.7.6-1.3Z"/>
          </g>
          <g>
            <path class="cls-2" d="M66.9,109.2v-10h2.8c.9,0,1.6.2,2.3.6s1.2.9,1.5,1.6.5,1.5.6,2.4v.6c0,.9-.2,1.8-.5,2.5s-.9,1.2-1.6,1.6-1.5.6-2.3.6h-2.8ZM68.2,100.3v7.8h1.4c1,0,1.8-.3,2.4-.9.6-.6.8-1.5.8-2.7v-.6c0-1.1-.3-2-.8-2.6-.5-.6-1.3-.9-2.3-1h-1.5Z"/>
            <path class="cls-2" d="M76.2,99.9c0-.2,0-.4.2-.5s.3-.2.6-.2.4,0,.6.2.2.3.2.5,0,.4-.2.5-.3.2-.6.2-.4,0-.6-.2-.2-.3-.2-.5ZM77.6,109.2h-1.3v-7.4h1.3v7.4Z"/>
            <path class="cls-2" d="M84.3,107.3c0-.3-.1-.6-.4-.8-.3-.2-.7-.4-1.3-.5-.6-.1-1.1-.3-1.5-.5-.4-.2-.7-.4-.8-.7s-.3-.6-.3-.9c0-.6.3-1.1.8-1.5.5-.4,1.2-.6,2-.6s1.5.2,2,.6c.5.4.8,1,.8,1.7h-1.3c0-.3-.1-.6-.4-.9s-.7-.4-1.1-.4-.8.1-1.1.3-.4.5-.4.8.1.5.4.7c.2.2.7.3,1.3.4.6.1,1.1.3,1.5.5.4.2.7.4.9.7.2.3.3.6.3,1,0,.7-.3,1.2-.8,1.6-.5.4-1.2.6-2.1.6s-1.1-.1-1.6-.3c-.5-.2-.8-.5-1.1-.9-.3-.4-.4-.8-.4-1.2h1.3c0,.4.2.8.5,1,.3.2.7.4,1.3.4s.9,0,1.2-.3c.3-.2.4-.5.4-.8Z"/>
            <path class="cls-2" d="M90.5,108.3c.5,0,.8-.1,1.2-.4.3-.3.5-.6.6-1h1.2c0,.4-.2.8-.4,1.2-.3.4-.6.7-1.1.9-.4.2-.9.3-1.4.3-1,0-1.8-.3-2.4-1-.6-.7-.9-1.6-.9-2.8v-.2c0-.7.1-1.4.4-1.9.3-.6.6-1,1.1-1.3.5-.3,1.1-.5,1.8-.5s1.5.2,2.1.7c.5.5.8,1.1.9,1.9h-1.2c0-.5-.2-.9-.5-1.2-.3-.3-.7-.5-1.2-.5s-1.1.2-1.5.7c-.4.5-.5,1.1-.5,2v.2c0,.9.2,1.5.5,2,.4.5.9.7,1.5.7Z"/>
            <path class="cls-2" d="M94.9,105.5c0-.7.1-1.4.4-2,.3-.6.7-1,1.2-1.3.5-.3,1.1-.5,1.7-.5,1,0,1.8.3,2.4,1s.9,1.6.9,2.8h0c0,.8-.1,1.5-.4,2-.3.6-.7,1-1.2,1.3s-1.1.5-1.8.5c-1,0-1.8-.3-2.4-1s-.9-1.6-.9-2.8h0ZM96.1,105.6c0,.8.2,1.5.6,2,.4.5.9.7,1.5.7s1.2-.3,1.5-.8c.4-.5.6-1.2.6-2.1s-.2-1.5-.6-2c-.4-.5-.9-.8-1.5-.8s-1.1.2-1.5.7-.6,1.2-.6,2.1Z"/>
            <path class="cls-2" d="M105.9,107.5l1.8-5.7h1.3l-2.7,7.4h-1l-2.7-7.4h1.3l1.9,5.7Z"/>
            <path class="cls-2" d="M113.6,109.4c-1,0-1.8-.3-2.4-1-.6-.7-.9-1.5-.9-2.6v-.2c0-.7.1-1.4.4-2,.3-.6.7-1,1.2-1.4.5-.3,1-.5,1.6-.5,1,0,1.7.3,2.2,1s.8,1.5.8,2.7v.5h-5c0,.7.2,1.3.6,1.8.4.4.9.7,1.6.7s.8,0,1.1-.3c.3-.2.6-.4.8-.7l.8.6c-.6,1-1.5,1.4-2.8,1.4ZM113.4,102.7c-.5,0-.9.2-1.3.6-.3.4-.6.9-.6,1.6h3.7c0-.7-.2-1.2-.5-1.6-.3-.4-.7-.5-1.3-.5Z"/>
            <path class="cls-2" d="M121.8,103c-.2,0-.4,0-.6,0-.8,0-1.4.4-1.7,1.1v5.2h-1.3v-7.4h1.2v.9c.4-.7,1-1,1.8-1s.4,0,.6,0v1.2Z"/>
            <path class="cls-2" d="M127.8,109.2v-6.4h-1.2v-1h1.2v-.8c0-.8.2-1.4.6-1.8s1-.6,1.8-.6.6,0,.9.1v1c-.3,0-.5,0-.8,0-.4,0-.7.1-1,.4-.2.2-.3.6-.3,1v.8h1.6v1h-1.6v6.4h-1.3Z"/>
            <path class="cls-2" d="M136.9,109.2c0-.1-.1-.4-.2-.8-.6.6-1.3.9-2.1.9s-1.3-.2-1.8-.6c-.5-.4-.7-.9-.7-1.6s.3-1.4.9-1.8c.6-.4,1.4-.6,2.5-.6h1.2v-.6c0-.4-.1-.8-.4-1.1-.3-.3-.7-.4-1.2-.4s-.8.1-1.1.3c-.3.2-.5.5-.5.8h-1.3c0-.4.1-.7.4-1.1.3-.3.6-.6,1.1-.8.4-.2.9-.3,1.5-.3.9,0,1.5.2,2,.6.5.4.7,1,.8,1.8v3.4c0,.7,0,1.2.3,1.6h0c0,.1-1.3.1-1.3.1ZM134.8,108.3c.4,0,.8-.1,1.1-.3s.6-.5.8-.8v-1.5h-1c-1.5,0-2.3.5-2.3,1.4s.1.7.4.9c.3.2.6.3,1,.3Z"/>
            <path class="cls-2" d="M141.5,101.8v.8c.6-.6,1.3-1,2.2-1s1.7.4,2.1,1.2c.2-.4.6-.6,1-.9.4-.2.9-.3,1.4-.3,1.6,0,2.4.9,2.5,2.6v5h-1.3v-4.9c0-.5-.1-.9-.4-1.2-.2-.3-.6-.4-1.2-.4s-.9.1-1.2.4c-.3.3-.5.7-.5,1.1v4.9h-1.3v-4.8c0-1.1-.5-1.6-1.6-1.6s-1.4.4-1.7,1.1v5.4h-1.3v-7.4h1.2Z"/>
            <path class="cls-2" d="M152.6,105.5c0-.7.1-1.4.4-2,.3-.6.7-1,1.2-1.3.5-.3,1.1-.5,1.7-.5,1,0,1.8.3,2.4,1,.6.7.9,1.6.9,2.8h0c0,.8-.1,1.5-.4,2-.3.6-.7,1-1.2,1.3-.5.3-1.1.5-1.8.5-1,0-1.8-.3-2.4-1-.6-.7-.9-1.6-.9-2.8h0ZM153.9,105.6c0,.8.2,1.5.6,2,.4.5.9.7,1.5.7s1.2-.3,1.5-.8c.4-.5.6-1.2.6-2.1s-.2-1.5-.6-2c-.4-.5-.9-.8-1.5-.8s-1.1.2-1.5.7-.6,1.2-.6,2.1Z"/>
            <path class="cls-2" d="M165.9,108.5c-.5.6-1.2.9-2.2.9s-1.4-.2-1.8-.7c-.4-.5-.6-1.1-.6-2v-4.8h1.3v4.8c0,1.1.5,1.7,1.4,1.7s1.6-.4,1.9-1.1v-5.4h1.3v7.4h-1.2v-.7Z"/>
            <path class="cls-2" d="M173.7,107.3c0-.3-.1-.6-.4-.8-.3-.2-.7-.4-1.3-.5-.6-.1-1.1-.3-1.5-.5-.4-.2-.7-.4-.8-.7-.2-.3-.3-.6-.3-.9,0-.6.3-1.1.8-1.5.5-.4,1.2-.6,2-.6s1.5.2,2,.6c.5.4.8,1,.8,1.7h-1.3c0-.3-.1-.6-.4-.9-.3-.3-.7-.4-1.1-.4s-.8.1-1.1.3-.4.5-.4.8.1.5.4.7.7.3,1.3.4c.6.1,1.1.3,1.5.5s.7.4.9.7c.2.3.3.6.3,1,0,.7-.3,1.2-.8,1.6-.5.4-1.2.6-2.1.6s-1.1-.1-1.6-.3-.8-.5-1.1-.9c-.3-.4-.4-.8-.4-1.2h1.3c0,.4.2.8.5,1,.3.2.7.4,1.3.4s.9,0,1.2-.3c.3-.2.4-.5.4-.8Z"/>
            <path class="cls-2" d="M50.3,126c0-.1-.1-.4-.2-.8-.6.6-1.3.9-2.1.9s-1.3-.2-1.8-.6c-.5-.4-.7-.9-.7-1.6s.3-1.4.9-1.8c.6-.4,1.4-.6,2.5-.6h1.2v-.6c0-.4-.1-.8-.4-1.1-.3-.3-.7-.4-1.2-.4s-.8.1-1.1.3-.5.5-.5.8h-1.3c0-.4.1-.7.4-1.1.3-.3.6-.6,1.1-.8s.9-.3,1.5-.3c.9,0,1.5.2,2,.6.5.4.7,1,.8,1.8v3.4c0,.7,0,1.2.3,1.6h0c0,.1-1.3.1-1.3.1ZM48.2,125.1c.4,0,.8-.1,1.1-.3s.6-.5.8-.8v-1.5h-1c-1.5,0-2.3.5-2.3,1.4s.1.7.4.9.6.3,1,.3Z"/>
            <path class="cls-2" d="M58.3,125.3c-.5.6-1.2.9-2.2.9s-1.4-.2-1.8-.7c-.4-.5-.6-1.1-.6-2v-4.8h1.3v4.8c0,1.1.5,1.7,1.4,1.7s1.6-.4,1.9-1.1v-5.4h1.3v7.4h-1.2v-.7Z"/>
            <path class="cls-2" d="M63.5,116.8v1.8h1.4v1h-1.4v4.6c0,.3,0,.5.2.7s.3.2.6.2.3,0,.6,0v1c-.3,0-.7.1-1,.1-.6,0-1-.2-1.3-.5s-.4-.8-.4-1.5v-4.6h-1.3v-1h1.3v-1.8h1.3Z"/>
            <path class="cls-2" d="M68,119.5c.6-.7,1.3-1,2.2-1,1.6,0,2.4.9,2.4,2.6v4.9h-1.3v-4.9c0-.5-.1-.9-.4-1.2s-.6-.4-1.1-.4-.8.1-1.1.3-.6.5-.7.9v5.3h-1.3v-10.5h1.3v4Z"/>
            <path class="cls-2" d="M74.5,122.3c0-.7.1-1.4.4-2s.7-1,1.2-1.3,1.1-.5,1.7-.5c1,0,1.8.3,2.4,1,.6.7.9,1.6.9,2.8h0c0,.8-.1,1.5-.4,2-.3.6-.7,1-1.2,1.3s-1.1.5-1.8.5c-1,0-1.8-.3-2.4-1s-.9-1.6-.9-2.8h0ZM75.7,122.4c0,.8.2,1.5.6,2s.9.7,1.5.7,1.2-.3,1.5-.8c.4-.5.6-1.2.6-2.1s-.2-1.5-.6-2c-.4-.5-.9-.8-1.5-.8s-1.1.2-1.5.7-.6,1.2-.6,2.1Z"/>
            <path class="cls-2" d="M86.7,119.8c-.2,0-.4,0-.6,0-.8,0-1.4.4-1.7,1.1v5.2h-1.3v-7.4h1.2v.9c.4-.7,1-1,1.8-1s.4,0,.6,0v1.2Z"/>
            <path class="cls-2" d="M92.5,124.1c0-.3-.1-.6-.4-.8-.3-.2-.7-.4-1.3-.5-.6-.1-1.1-.3-1.5-.5s-.7-.4-.8-.7c-.2-.3-.3-.6-.3-.9,0-.6.3-1.1.8-1.5s1.2-.6,2-.6,1.5.2,2,.6c.5.4.8,1,.8,1.7h-1.3c0-.3-.1-.6-.4-.9s-.7-.4-1.1-.4-.8.1-1.1.3-.4.5-.4.8.1.5.4.7c.2.2.7.3,1.3.4.6.1,1.1.3,1.5.5.4.2.7.4.9.7.2.3.3.6.3,1,0,.7-.3,1.2-.8,1.6-.5.4-1.2.6-2.1.6s-1.1-.1-1.6-.3c-.5-.2-.8-.5-1.1-.9-.3-.4-.4-.8-.4-1.2h1.3c0,.4.2.8.5,1,.3.2.7.4,1.3.4s.9,0,1.2-.3c.3-.2.4-.5.4-.8Z"/>
            <path class="cls-2" d="M104.2,126c0-.1-.1-.4-.2-.8-.6.6-1.3.9-2.1.9s-1.3-.2-1.8-.6c-.5-.4-.7-.9-.7-1.6s.3-1.4.9-1.8c.6-.4,1.4-.6,2.5-.6h1.2v-.6c0-.4-.1-.8-.4-1.1-.3-.3-.7-.4-1.2-.4s-.8.1-1.1.3c-.3.2-.5.5-.5.8h-1.3c0-.4.1-.7.4-1.1.3-.3.6-.6,1.1-.8.4-.2.9-.3,1.5-.3.9,0,1.5.2,2,.6.5.4.7,1,.8,1.8v3.4c0,.7,0,1.2.3,1.6h0c0,.1-1.3.1-1.3.1ZM102.1,125.1c.4,0,.8-.1,1.1-.3s.6-.5.8-.8v-1.5h-1c-1.5,0-2.3.5-2.3,1.4s.1.7.4.9c.3.2.6.3,1,.3Z"/>
            <path class="cls-2" d="M108.8,118.6v.9c.6-.7,1.3-1.1,2.3-1.1,1.6,0,2.4.9,2.4,2.6v4.9h-1.3v-4.9c0-.5-.1-.9-.4-1.2s-.6-.4-1.1-.4-.8.1-1.1.3c-.3.2-.6.5-.7.9v5.3h-1.3v-7.4h1.2Z"/>
            <path class="cls-2" d="M115.3,122.3c0-1.1.3-2,.8-2.7.5-.7,1.2-1,2.1-1s1.6.3,2.1.9v-3.9h1.3v10.5h-1.2v-.8c-.6.6-1.3.9-2.2.9s-1.6-.4-2.1-1.1-.8-1.6-.8-2.7h0ZM116.6,122.4c0,.8.2,1.5.5,2,.3.5.8.7,1.4.7s1.4-.4,1.8-1.1v-3.4c-.4-.7-1-1-1.7-1s-1.1.2-1.4.7c-.3.5-.5,1.2-.5,2.1Z"/>
            <path class="cls-2" d="M129.1,126h-1.3v-10.5h1.3v10.5Z"/>
            <path class="cls-2" d="M134.5,126.2c-1,0-1.8-.3-2.4-1-.6-.7-.9-1.5-.9-2.6v-.2c0-.7.1-1.4.4-2,.3-.6.7-1,1.2-1.4.5-.3,1-.5,1.6-.5,1,0,1.7.3,2.2,1s.8,1.5.8,2.7v.5h-5c0,.7.2,1.3.6,1.8.4.4.9.7,1.6.7s.8,0,1.1-.3c.3-.2.6-.4.8-.7l.8.6c-.6,1-1.5,1.4-2.8,1.4ZM134.4,119.5c-.5,0-.9.2-1.3.6-.3.4-.6.9-.6,1.6h3.7c0-.7-.2-1.2-.5-1.6-.3-.4-.7-.5-1.3-.5Z"/>
            <path class="cls-2" d="M143.8,126c0-.1-.1-.4-.2-.8-.6.6-1.3.9-2.1.9s-1.3-.2-1.8-.6c-.5-.4-.7-.9-.7-1.6s.3-1.4.9-1.8c.6-.4,1.4-.6,2.5-.6h1.2v-.6c0-.4-.1-.8-.4-1.1-.3-.3-.7-.4-1.2-.4s-.8.1-1.1.3c-.3.2-.5.5-.5.8h-1.3c0-.4.1-.7.4-1.1.3-.3.6-.6,1.1-.8.4-.2.9-.3,1.5-.3.9,0,1.5.2,2,.6.5.4.7,1,.8,1.8v3.4c0,.7,0,1.2.3,1.6h0c0,.1-1.3.1-1.3.1ZM141.7,125.1c.4,0,.8-.1,1.1-.3s.6-.5.8-.8v-1.5h-1c-1.5,0-2.3.5-2.3,1.4s.1.7.4.9c.3.2.6.3,1,.3Z"/>
            <path class="cls-2" d="M150.8,119.8c-.2,0-.4,0-.6,0-.8,0-1.4.4-1.7,1.1v5.2h-1.3v-7.4h1.2v.9c.4-.7,1-1,1.8-1s.4,0,.6,0v1.2Z"/>
            <path class="cls-2" d="M153.5,118.6v.9c.6-.7,1.3-1.1,2.3-1.1,1.6,0,2.4.9,2.4,2.6v4.9h-1.3v-4.9c0-.5-.1-.9-.4-1.2-.2-.3-.6-.4-1.1-.4s-.8.1-1.1.3-.6.5-.7.9v5.3h-1.3v-7.4h1.2Z"/>
            <path class="cls-2" d="M165.3,118.6v.8c.6-.6,1.3-1,2.2-1s1.7.4,2.1,1.2c.2-.4.6-.6,1-.9.4-.2.9-.3,1.4-.3,1.6,0,2.4.9,2.5,2.6v5h-1.3v-4.9c0-.5-.1-.9-.4-1.2-.2-.3-.6-.4-1.2-.4s-.9.1-1.2.4c-.3.3-.5.7-.5,1.1v4.9h-1.3v-4.8c0-1.1-.5-1.6-1.6-1.6s-1.4.4-1.7,1.1v5.4h-1.3v-7.4h1.2Z"/>
            <path class="cls-2" d="M176.4,122.3c0-.7.1-1.4.4-2,.3-.6.7-1,1.2-1.3.5-.3,1.1-.5,1.7-.5,1,0,1.8.3,2.4,1,.6.7.9,1.6.9,2.8h0c0,.8-.1,1.5-.4,2-.3.6-.7,1-1.2,1.3-.5.3-1.1.5-1.8.5-1,0-1.8-.3-2.4-1-.6-.7-.9-1.6-.9-2.8h0ZM177.7,122.4c0,.8.2,1.5.6,2,.4.5.9.7,1.5.7s1.2-.3,1.5-.8c.4-.5.6-1.2.6-2.1s-.2-1.5-.6-2c-.4-.5-.9-.8-1.5-.8s-1.1.2-1.5.7-.6,1.2-.6,2.1Z"/>
            <path class="cls-2" d="M188.7,119.8c-.2,0-.4,0-.6,0-.8,0-1.4.4-1.7,1.1v5.2h-1.3v-7.4h1.2v.9c.4-.7,1-1,1.8-1s.4,0,.6,0v1.2Z"/>
            <path class="cls-2" d="M193.1,126.2c-1,0-1.8-.3-2.4-1-.6-.7-.9-1.5-.9-2.6v-.2c0-.7.1-1.4.4-2,.3-.6.7-1,1.2-1.4.5-.3,1-.5,1.6-.5,1,0,1.7.3,2.2,1s.8,1.5.8,2.7v.5h-5c0,.7.2,1.3.6,1.8.4.4.9.7,1.6.7s.8,0,1.1-.3.6-.4.8-.7l.8.6c-.6,1-1.5,1.4-2.8,1.4ZM193,119.5c-.5,0-.9.2-1.3.6-.3.4-.6.9-.6,1.6h3.7c0-.7-.2-1.2-.5-1.6-.3-.4-.7-.5-1.3-.5Z"/>
            <path class="cls-2" d="M61.2,142.8c0-.1-.1-.4-.2-.8-.6.6-1.3.9-2.1.9s-1.3-.2-1.8-.6c-.5-.4-.7-.9-.7-1.6s.3-1.4.9-1.8c.6-.4,1.4-.6,2.5-.6h1.2v-.6c0-.4-.1-.8-.4-1.1-.3-.3-.7-.4-1.2-.4s-.8.1-1.1.3-.5.5-.5.8h-1.3c0-.4.1-.7.4-1.1.3-.3.6-.6,1.1-.8s.9-.3,1.5-.3c.9,0,1.5.2,2,.6.5.4.7,1,.8,1.8v3.4c0,.7,0,1.2.3,1.6h0c0,.1-1.3.1-1.3.1ZM59.1,141.9c.4,0,.8-.1,1.1-.3s.6-.5.8-.8v-1.5h-1c-1.5,0-2.3.5-2.3,1.4s.1.7.4.9.6.3,1,.3Z"/>
            <path class="cls-2" d="M70.8,139.2c0,1.1-.3,2-.8,2.7-.5.7-1.2,1-2.1,1s-1.7-.3-2.2-1v.9h-1.2v-10.5h1.3v3.9c.5-.6,1.2-1,2.1-1s1.6.3,2.1,1,.8,1.6.8,2.8h0ZM69.6,139.1c0-.9-.2-1.5-.5-2s-.8-.7-1.4-.7-1.4.4-1.8,1.2v3.2c.4.8,1,1.2,1.8,1.2s1.1-.2,1.4-.7.5-1.2.5-2.1Z"/>
            <path class="cls-2" d="M72.4,139.1c0-.7.1-1.4.4-2s.7-1,1.2-1.3,1.1-.5,1.7-.5c1,0,1.8.3,2.4,1s.9,1.6.9,2.8h0c0,.8-.1,1.5-.4,2-.3.6-.7,1-1.2,1.3s-1.1.5-1.8.5c-1,0-1.8-.3-2.4-1s-.9-1.6-.9-2.8h0ZM73.7,139.2c0,.8.2,1.5.6,2s.9.7,1.5.7,1.2-.3,1.5-.8c.4-.5.6-1.2.6-2.1s-.2-1.5-.6-2c-.4-.5-.9-.8-1.5-.8s-1.1.2-1.5.7-.6,1.2-.6,2.1Z"/>
            <path class="cls-2" d="M85.7,142.1c-.5.6-1.2.9-2.2.9s-1.4-.2-1.8-.7c-.4-.5-.6-1.1-.6-2v-4.8h1.3v4.8c0,1.1.5,1.7,1.4,1.7s1.6-.4,1.9-1.1v-5.4h1.3v7.4h-1.2v-.7Z"/>
            <path class="cls-2" d="M90.9,133.6v1.8h1.4v1h-1.4v4.6c0,.3,0,.5.2.7s.3.2.6.2.3,0,.6,0v1c-.3,0-.7.1-1,.1-.6,0-1-.2-1.3-.5s-.4-.8-.4-1.5v-4.6h-1.3v-1h1.3v-1.8h1.3Z"/>
            <path class="cls-2" d="M99.6,133.6v1.8h1.4v1h-1.4v4.6c0,.3,0,.5.2.7s.3.2.6.2.3,0,.6,0v1c-.3,0-.7.1-1,.1-.6,0-1-.2-1.3-.5s-.4-.8-.4-1.5v-4.6h-1.3v-1h1.3v-1.8h1.3Z"/>
            <path class="cls-2" d="M104.1,136.3c.6-.7,1.3-1,2.2-1,1.6,0,2.4.9,2.4,2.6v4.9h-1.3v-4.9c0-.5-.1-.9-.4-1.2s-.6-.4-1.1-.4-.8.1-1.1.3c-.3.2-.6.5-.7.9v5.3h-1.3v-10.5h1.3v4Z"/>
            <path class="cls-2" d="M114,143c-1,0-1.8-.3-2.4-1-.6-.7-.9-1.5-.9-2.6v-.2c0-.7.1-1.4.4-2,.3-.6.7-1,1.2-1.4.5-.3,1-.5,1.6-.5,1,0,1.7.3,2.2,1s.8,1.5.8,2.7v.5h-5c0,.7.2,1.3.6,1.8.4.4.9.7,1.6.7s.8,0,1.1-.3c.3-.2.6-.4.8-.7l.8.6c-.6,1-1.5,1.4-2.8,1.4ZM113.8,136.3c-.5,0-.9.2-1.3.6-.3.4-.6.9-.6,1.6h3.7c0-.7-.2-1.2-.5-1.6-.3-.4-.7-.5-1.3-.5Z"/>
            <path class="cls-2" d="M118.7,133.5c0-.2,0-.4.2-.5.1-.1.3-.2.6-.2s.4,0,.6.2c.1.1.2.3.2.5s0,.4-.2.5c-.1.1-.3.2-.6.2s-.4,0-.6-.2c-.1-.1-.2-.3-.2-.5ZM120,142.8h-1.3v-7.4h1.3v7.4Z"/>
            <path class="cls-2" d="M126,136.6c-.2,0-.4,0-.6,0-.8,0-1.4.4-1.7,1.1v5.2h-1.3v-7.4h1.2v.9c.4-.7,1-1,1.8-1s.4,0,.6,0v1.2Z"/>
            <path class="cls-2" d="M133,133.6v1.8h1.4v1h-1.4v4.6c0,.3,0,.5.2.7s.3.2.6.2.3,0,.6,0v1c-.3,0-.7.1-1,.1-.6,0-1-.2-1.3-.5s-.4-.8-.4-1.5v-4.6h-1.3v-1h1.3v-1.8h1.3Z"/>
            <path class="cls-2" d="M136.2,133.5c0-.2,0-.4.2-.5.1-.1.3-.2.6-.2s.4,0,.6.2c.1.1.2.3.2.5s0,.4-.2.5c-.1.1-.3.2-.6.2s-.4,0-.6-.2c-.1-.1-.2-.3-.2-.5ZM137.6,142.8h-1.3v-7.4h1.3v7.4Z"/>
            <path class="cls-2" d="M141.2,135.4v.8c.6-.6,1.3-1,2.2-1s1.7.4,2.1,1.2c.2-.4.6-.6,1-.9.4-.2.9-.3,1.4-.3,1.6,0,2.4.9,2.5,2.6v5h-1.3v-4.9c0-.5-.1-.9-.4-1.2-.2-.3-.6-.4-1.2-.4s-.9.1-1.2.4c-.3.3-.5.7-.5,1.1v4.9h-1.3v-4.8c0-1.1-.5-1.6-1.6-1.6s-1.4.4-1.7,1.1v5.4h-1.3v-7.4h1.2Z"/>
            <path class="cls-2" d="M155.7,143c-1,0-1.8-.3-2.4-1-.6-.7-.9-1.5-.9-2.6v-.2c0-.7.1-1.4.4-2,.3-.6.7-1,1.2-1.4.5-.3,1-.5,1.6-.5,1,0,1.7.3,2.2,1s.8,1.5.8,2.7v.5h-5c0,.7.2,1.3.6,1.8.4.4.9.7,1.6.7s.8,0,1.1-.3.6-.4.8-.7l.8.6c-.6,1-1.5,1.4-2.8,1.4ZM155.5,136.3c-.5,0-.9.2-1.3.6-.3.4-.6.9-.6,1.6h3.7c0-.7-.2-1.2-.5-1.6-.3-.4-.7-.5-1.3-.5Z"/>
            <path class="cls-2" d="M161.7,142.8h-1.3v-10.5h1.3v10.5Z"/>
            <path class="cls-2" d="M167.2,143c-1,0-1.8-.3-2.4-1-.6-.7-.9-1.5-.9-2.6v-.2c0-.7.1-1.4.4-2,.3-.6.7-1,1.2-1.4.5-.3,1-.5,1.6-.5,1,0,1.7.3,2.2,1s.8,1.5.8,2.7v.5h-5c0,.7.2,1.3.6,1.8.4.4.9.7,1.6.7s.8,0,1.1-.3.6-.4.8-.7l.8.6c-.6,1-1.5,1.4-2.8,1.4ZM167,136.3c-.5,0-.9.2-1.3.6-.3.4-.6.9-.6,1.6h3.7c0-.7-.2-1.2-.5-1.6-.3-.4-.7-.5-1.3-.5Z"/>
            <path class="cls-2" d="M176.2,140.9c0-.3-.1-.6-.4-.8-.3-.2-.7-.4-1.3-.5-.6-.1-1.1-.3-1.5-.5-.4-.2-.7-.4-.8-.7-.2-.3-.3-.6-.3-.9,0-.6.3-1.1.8-1.5.5-.4,1.2-.6,2-.6s1.5.2,2,.6c.5.4.8,1,.8,1.7h-1.3c0-.3-.1-.6-.4-.9-.3-.3-.7-.4-1.1-.4s-.8.1-1.1.3-.4.5-.4.8.1.5.4.7.7.3,1.3.4c.6.1,1.1.3,1.5.5s.7.4.9.7c.2.3.3.6.3,1,0,.7-.3,1.2-.8,1.6-.5.4-1.2.6-2.1.6s-1.1-.1-1.6-.3-.8-.5-1.1-.9c-.3-.4-.4-.8-.4-1.2h1.3c0,.4.2.8.5,1,.3.2.7.4,1.3.4s.9,0,1.2-.3c.3-.2.4-.5.4-.8Z"/>
            <path class="cls-2" d="M183.8,140.9c0-.3-.1-.6-.4-.8-.3-.2-.7-.4-1.3-.5-.6-.1-1.1-.3-1.5-.5-.4-.2-.7-.4-.8-.7-.2-.3-.3-.6-.3-.9,0-.6.3-1.1.8-1.5.5-.4,1.2-.6,2-.6s1.5.2,2,.6c.5.4.8,1,.8,1.7h-1.3c0-.3-.1-.6-.4-.9-.3-.3-.7-.4-1.1-.4s-.8.1-1.1.3-.4.5-.4.8.1.5.4.7.7.3,1.3.4c.6.1,1.1.3,1.5.5s.7.4.9.7c.2.3.3.6.3,1,0,.7-.3,1.2-.8,1.6-.5.4-1.2.6-2.1.6s-1.1-.1-1.6-.3-.8-.5-1.1-.9c-.3-.4-.4-.8-.4-1.2h1.3c0,.4.2.8.5,1,.3.2.7.4,1.3.4s.9,0,1.2-.3c.3-.2.4-.5.4-.8Z"/>
            <path class="cls-2" d="M43.3,157.9l1.4-5.7h1.3l-2.2,7.4h-1l-1.8-5.6-1.8,5.6h-1l-2.1-7.4h1.3l1.5,5.5,1.7-5.5h1l1.8,5.7Z"/>
            <path class="cls-2" d="M47.6,150.3c0-.2,0-.4.2-.5s.3-.2.6-.2.4,0,.6.2.2.3.2.5,0,.4-.2.5-.3.2-.6.2-.4,0-.6-.2-.2-.3-.2-.5ZM49,159.6h-1.3v-7.4h1.3v7.4Z"/>
            <path class="cls-2" d="M55.7,157.7c0-.3-.1-.6-.4-.8-.3-.2-.7-.4-1.3-.5s-1.1-.3-1.5-.5-.7-.4-.8-.7-.3-.6-.3-.9c0-.6.3-1.1.8-1.5s1.2-.6,2-.6,1.5.2,2,.6.8,1,.8,1.7h-1.3c0-.3-.1-.6-.4-.9s-.7-.4-1.1-.4-.8.1-1.1.3-.4.5-.4.8.1.5.4.7.7.3,1.3.4,1.1.3,1.5.5.7.4.9.7c.2.3.3.6.3,1,0,.7-.3,1.2-.8,1.6-.5.4-1.2.6-2.1.6s-1.1-.1-1.6-.3-.8-.5-1.1-.9c-.3-.4-.4-.8-.4-1.2h1.3c0,.4.2.8.5,1,.3.2.7.4,1.3.4s.9,0,1.2-.3c.3-.2.4-.5.4-.8Z"/>
            <path class="cls-2" d="M58.6,155.9c0-1.1.3-2,.8-2.7.5-.7,1.2-1,2.1-1s1.6.3,2.1.9v-3.9h1.3v10.5h-1.2v-.8c-.6.6-1.3.9-2.2.9s-1.6-.4-2.1-1.1-.8-1.6-.8-2.7h0ZM59.9,156c0,.8.2,1.5.5,2s.8.7,1.4.7,1.4-.4,1.8-1.1v-3.4c-.4-.7-1-1-1.7-1s-1.1.2-1.4.7-.5,1.2-.5,2.1Z"/>
            <path class="cls-2" d="M66.9,155.9c0-.7.1-1.4.4-2s.7-1,1.2-1.3,1.1-.5,1.7-.5c1,0,1.8.3,2.4,1s.9,1.6.9,2.8h0c0,.8-.1,1.5-.4,2-.3.6-.7,1-1.2,1.3s-1.1.5-1.8.5c-1,0-1.8-.3-2.4-1s-.9-1.6-.9-2.8h0ZM68.1,156c0,.8.2,1.5.6,2s.9.7,1.5.7,1.2-.3,1.5-.8c.4-.5.6-1.2.6-2.1s-.2-1.5-.6-2c-.4-.5-.9-.8-1.5-.8s-1.1.2-1.5.7-.6,1.2-.6,2.1Z"/>
            <path class="cls-2" d="M76.7,152.2v.8c.6-.6,1.3-1,2.2-1s1.7.4,2.1,1.2c.2-.4.6-.6,1-.9.4-.2.9-.3,1.4-.3,1.6,0,2.4.9,2.5,2.6v5h-1.3v-4.9c0-.5-.1-.9-.4-1.2-.2-.3-.6-.4-1.2-.4s-.9.1-1.2.4c-.3.3-.5.7-.5,1.1v4.9h-1.3v-4.8c0-1.1-.5-1.6-1.6-1.6s-1.4.4-1.7,1.1v5.4h-1.3v-7.4h1.2Z"/>
            <path class="cls-2" d="M96.5,159.6c0-.1-.1-.4-.2-.8-.6.6-1.3.9-2.1.9s-1.3-.2-1.8-.6c-.5-.4-.7-.9-.7-1.6s.3-1.4.9-1.8c.6-.4,1.4-.6,2.5-.6h1.2v-.6c0-.4-.1-.8-.4-1.1-.3-.3-.7-.4-1.2-.4s-.8.1-1.1.3c-.3.2-.5.5-.5.8h-1.3c0-.4.1-.7.4-1.1.3-.3.6-.6,1.1-.8.4-.2.9-.3,1.5-.3.9,0,1.5.2,2,.6.5.4.7,1,.8,1.8v3.4c0,.7,0,1.2.3,1.6h0c0,.1-1.3.1-1.3.1ZM94.4,158.7c.4,0,.8-.1,1.1-.3s.6-.5.8-.8v-1.5h-1c-1.5,0-2.3.5-2.3,1.4s.1.7.4.9c.3.2.6.3,1,.3Z"/>
            <path class="cls-2" d="M101.1,152.2v.9c.6-.7,1.3-1.1,2.3-1.1,1.6,0,2.4.9,2.4,2.6v4.9h-1.3v-4.9c0-.5-.1-.9-.4-1.2s-.6-.4-1.1-.4-.8.1-1.1.3c-.3.2-.6.5-.7.9v5.3h-1.3v-7.4h1.2Z"/>
            <path class="cls-2" d="M107.7,155.9c0-1.1.3-2,.8-2.7.5-.7,1.2-1,2.1-1s1.6.3,2.1.9v-3.9h1.3v10.5h-1.2v-.8c-.6.6-1.3.9-2.2.9s-1.6-.4-2.1-1.1-.8-1.6-.8-2.7h0ZM109,156c0,.8.2,1.5.5,2,.3.5.8.7,1.4.7s1.4-.4,1.8-1.1v-3.4c-.4-.7-1-1-1.7-1s-1.1.2-1.4.7c-.3.5-.5,1.2-.5,2.1Z"/>
            <path class="cls-2" d="M123,158.7c.5,0,.8-.1,1.2-.4.3-.3.5-.6.6-1h1.2c0,.4-.2.8-.4,1.2-.3.4-.6.7-1.1.9-.4.2-.9.3-1.4.3-1,0-1.8-.3-2.4-1-.6-.7-.9-1.6-.9-2.8v-.2c0-.7.1-1.4.4-1.9.3-.6.6-1,1.1-1.3.5-.3,1.1-.5,1.8-.5s1.5.2,2.1.7c.5.5.8,1.1.9,1.9h-1.2c0-.5-.2-.9-.5-1.2-.3-.3-.7-.5-1.2-.5s-1.1.2-1.5.7c-.4.5-.5,1.1-.5,2v.2c0,.9.2,1.5.5,2,.4.5.9.7,1.5.7Z"/>
            <path class="cls-2" d="M127.4,155.9c0-.7.1-1.4.4-2,.3-.6.7-1,1.2-1.3.5-.3,1.1-.5,1.7-.5,1,0,1.8.3,2.4,1s.9,1.6.9,2.8h0c0,.8-.1,1.5-.4,2-.3.6-.7,1-1.2,1.3s-1.1.5-1.8.5c-1,0-1.8-.3-2.4-1s-.9-1.6-.9-2.8h0ZM128.7,156c0,.8.2,1.5.6,2,.4.5.9.7,1.5.7s1.2-.3,1.5-.8c.4-.5.6-1.2.6-2.1s-.2-1.5-.6-2c-.4-.5-.9-.8-1.5-.8s-1.1.2-1.5.7-.6,1.2-.6,2.1Z"/>
            <path class="cls-2" d="M137.3,152.2v.9c.6-.7,1.3-1.1,2.3-1.1,1.6,0,2.4.9,2.4,2.6v4.9h-1.3v-4.9c0-.5-.1-.9-.4-1.2s-.6-.4-1.1-.4-.8.1-1.1.3c-.3.2-.6.5-.7.9v5.3h-1.3v-7.4h1.2Z"/>
            <path class="cls-2" d="M145.9,150.4v1.8h1.4v1h-1.4v4.6c0,.3,0,.5.2.7s.3.2.6.2.3,0,.6,0v1c-.3,0-.7.1-1,.1-.6,0-1-.2-1.3-.5s-.4-.8-.4-1.5v-4.6h-1.3v-1h1.3v-1.8h1.3Z"/>
            <path class="cls-2" d="M152.7,153.4c-.2,0-.4,0-.6,0-.8,0-1.4.4-1.7,1.1v5.2h-1.3v-7.4h1.2v.9c.4-.7,1-1,1.8-1s.4,0,.6,0v1.2Z"/>
            <path class="cls-2" d="M154.2,150.3c0-.2,0-.4.2-.5.1-.1.3-.2.6-.2s.4,0,.6.2.2.3.2.5,0,.4-.2.5-.3.2-.6.2-.4,0-.6-.2c-.1-.1-.2-.3-.2-.5ZM155.5,159.6h-1.3v-7.4h1.3v7.4Z"/>
            <path class="cls-2" d="M164.2,156c0,1.1-.3,2-.8,2.7-.5.7-1.2,1-2.1,1s-1.7-.3-2.2-1v.9h-1.2v-10.5h1.3v3.9c.5-.6,1.2-1,2.1-1s1.6.3,2.1,1c.5.7.8,1.6.8,2.8h0ZM162.9,155.9c0-.9-.2-1.5-.5-2s-.8-.7-1.4-.7-1.4.4-1.8,1.2v3.2c.4.8,1,1.2,1.8,1.2s1.1-.2,1.4-.7.5-1.2.5-2.1Z"/>
            <path class="cls-2" d="M170.7,158.9c-.5.6-1.2.9-2.2.9s-1.4-.2-1.8-.7c-.4-.5-.6-1.1-.6-2v-4.8h1.3v4.8c0,1.1.5,1.7,1.4,1.7s1.6-.4,1.9-1.1v-5.4h1.3v7.4h-1.2v-.7Z"/>
            <path class="cls-2" d="M175.9,150.4v1.8h1.4v1h-1.4v4.6c0,.3,0,.5.2.7s.3.2.6.2.3,0,.6,0v1c-.3,0-.7.1-1,.1-.6,0-1-.2-1.3-.5s-.4-.8-.4-1.5v-4.6h-1.3v-1h1.3v-1.8h1.3Z"/>
            <path class="cls-2" d="M179.1,150.3c0-.2,0-.4.2-.5.1-.1.3-.2.6-.2s.4,0,.6.2.2.3.2.5,0,.4-.2.5-.3.2-.6.2-.4,0-.6-.2c-.1-.1-.2-.3-.2-.5ZM180.5,159.6h-1.3v-7.4h1.3v7.4Z"/>
            <path class="cls-2" d="M182.5,155.9c0-.7.1-1.4.4-2,.3-.6.7-1,1.2-1.3.5-.3,1.1-.5,1.7-.5,1,0,1.8.3,2.4,1,.6.7.9,1.6.9,2.8h0c0,.8-.1,1.5-.4,2-.3.6-.7,1-1.2,1.3-.5.3-1.1.5-1.8.5-1,0-1.8-.3-2.4-1-.6-.7-.9-1.6-.9-2.8h0ZM183.8,156c0,.8.2,1.5.6,2,.4.5.9.7,1.5.7s1.2-.3,1.5-.8c.4-.5.6-1.2.6-2.1s-.2-1.5-.6-2c-.4-.5-.9-.8-1.5-.8s-1.1.2-1.5.7-.6,1.2-.6,2.1Z"/>
            <path class="cls-2" d="M192.4,152.2v.9c.6-.7,1.3-1.1,2.3-1.1,1.6,0,2.4.9,2.4,2.6v4.9h-1.3v-4.9c0-.5-.1-.9-.4-1.2-.2-.3-.6-.4-1.1-.4s-.8.1-1.1.3-.6.5-.7.9v5.3h-1.3v-7.4h1.2Z"/>
            <path class="cls-2" d="M203.6,157.7c0-.3-.1-.6-.4-.8-.3-.2-.7-.4-1.3-.5-.6-.1-1.1-.3-1.5-.5-.4-.2-.7-.4-.8-.7-.2-.3-.3-.6-.3-.9,0-.6.3-1.1.8-1.5.5-.4,1.2-.6,2-.6s1.5.2,2,.6c.5.4.8,1,.8,1.7h-1.3c0-.3-.1-.6-.4-.9-.3-.3-.7-.4-1.1-.4s-.8.1-1.1.3-.4.5-.4.8.1.5.4.7.7.3,1.3.4c.6.1,1.1.3,1.5.5s.7.4.9.7c.2.3.3.6.3,1,0,.7-.3,1.2-.8,1.6-.5.4-1.2.6-2.1.6s-1.1-.1-1.6-.3-.8-.5-1.1-.9c-.3-.4-.4-.8-.4-1.2h1.3c0,.4.2.8.5,1,.3.2.7.4,1.3.4s.9,0,1.2-.3c.3-.2.4-.5.4-.8Z"/>
          </g>
        </g>
      </g>
      <g class="cls-10">
        <rect class="cls-9" x="149.6" y="132" width="116.3" height="116.3" transform="translate(415.6 380.4) rotate(180)"/>
      </g>
      <g class="cls-6">
        <rect class="cls-9" x="149.6" y="132" width="116.3" height="116.3" transform="translate(415.6 380.4) rotate(180)"/>
      </g>
      <g class="cls-8">
        <rect class="cls-1" x="-8.2" y="-10" width="116.3" height="116.3"/>
      </g>
      <g class="cls-7">
        <rect class="cls-5" x="-8.2" y="-10" width="116.3" height="116.3"/>
      </g>
    </g>
  </g>
</svg>