<?xml version="1.0" encoding="UTF-8"?>
<!--
  - Copyright 2024 NGApps Dev (https://github.com/ngapp-dev). All rights reserved.
  -
  - Licensed under the Apache License, Version 2.0 (the "License");
  - you may not use this file except in compliance with the License.
  - You may obtain a copy of the License at
  -
  - http://www.apache.org/licenses/LICENSE-2.0
  -
  - Unless required by applicable law or agreed to in writing, software
  - distributed under the License is distributed on an "AS IS" BASIS,
  - WITHOUT WARRANTIES OR CONDITIONS OF ANY KIND, either express or implied.
  -
  - See the License for the specific language governing permissions and
  - limitations under the License.
  -->

<svg xmlns="http://www.w3.org/2000/svg" version="1.1" xmlns:xlink="http://www.w3.org/1999/xlink" viewBox="0 0 250 250">
  <defs>
    <style>
      .cls-1 {
        fill: url(#linear-gradient-2);
      }

      .cls-2 {
        fill: #fff;
      }

      .cls-3 {
        fill: #1f4f98;
      }

      .cls-4 {
        fill: none;
      }

      .cls-5 {
        fill: url(#linear-gradient-3);
      }

      .cls-6 {
        clip-path: url(#clippath-1);
      }

      .cls-7 {
        clip-path: url(#clippath-3);
      }

      .cls-8 {
        clip-path: url(#clippath-2);
      }

      .cls-9 {
        fill: url(#linear-gradient);
      }

      .cls-10 {
        clip-path: url(#clippath);
      }
    </style>
    <clipPath id="clippath">
      <path class="cls-4" d="M206,201.6c-.4,1.5-1.2,2.7-2.3,3.5-1.1.8-2.7,1.2-4.7,1l-.9,6.6c5.3.9,9.2-.1,11.8-3s4-7.1,4-12.7v-17.1h-15.8v16.4h8.2c.2,1.9.1,3.6-.3,5.1Z"/>
    </clipPath>
    <linearGradient id="linear-gradient" x1="159.5" y1="-524" x2="275.8" y2="-524" gradientTransform="translate(-23.4 720.4)" gradientUnits="userSpaceOnUse">
      <stop offset="0" stop-color="#5185f8"/>
      <stop offset="0" stop-color="#b7ccec"/>
      <stop offset="1" stop-color="#b7ccec"/>
    </linearGradient>
    <clipPath id="clippath-1">
      <path class="cls-4" d="M182.5,201.6c-.4,1.5-1.2,2.7-2.3,3.5-1.1.8-2.7,1.2-4.7,1l-.9,6.6c5.2.9,9.2-.1,11.8-3,2.6-2.9,4-7.1,4-12.7v-17.1h-15.8v16.4h8.2c.2,1.9.1,3.6-.3,5.1Z"/>
    </clipPath>
    <clipPath id="clippath-2">
      <path class="cls-4" d="M45.4,39c.4-1.5,1.2-2.7,2.3-3.5,1.1-.8,2.7-1.2,4.7-1l.9-6.6c-5.3-.9-9.2.1-11.8,3s-4,7.1-4,12.7v17.1h15.8v-16.4h-8.2c-.2-1.9-.1-3.6.3-5.1Z"/>
    </clipPath>
    <linearGradient id="linear-gradient-2" x1="-1" y1="44.2" x2="115.3" y2="44.2" gradientTransform="matrix(1,0,0,1,0,0)" xlink:href="#linear-gradient"/>
    <clipPath id="clippath-3">
      <path class="cls-4" d="M68.9,39c.4-1.5,1.2-2.7,2.3-3.5,1.1-.8,2.7-1.2,4.7-1l.9-6.6c-5.2-.9-9.2.1-11.8,3-2.6,2.9-4,7.1-4,12.7v17.1h15.8v-16.4h-8.2c-.2-1.9-.1-3.6.3-5.1Z"/>
    </clipPath>
    <linearGradient id="linear-gradient-3" x1="-1" y1="44.2" x2="115.3" y2="44.2" gradientTransform="matrix(1,0,0,1,0,0)" xlink:href="#linear-gradient"/>
  </defs>
  <!-- Generator: Adobe Illustrator 28.7.1, SVG Export Plug-In . SVG Version: 1.2.0 Build 142)  -->
  <g>
    <g id="OBJECTS">
      <g>
        <g>
          <path class="cls-3" d="M117.1,43.4S18.5,35,21.7,128.6s90.1,82.9,115.4,81.1c25.3-1.8,89.6-6,91.2-85.3,1.6-79.3-62.2-84.7-111.2-81.1Z"/>
          <g>
            <path class="cls-3" d="M112.8,34.8c-6.8,2.4-13.4,3.4-20.3,4.4-6.9.8-13.6,1.6-20.7,1,10.8-8.2,28.4-10.4,41-5.4h0Z"/>
            <path class="cls-3" d="M236.2,101.2c-8.2-28.2-22.6-47.1-50.3-57.9-8.3-3.4-17.1-5.8-26.1-8.1,9.3-.4,18.6.6,27.7,3.2,29.4,7.9,48.6,32.3,48.6,62.8h0Z"/>
            <path class="cls-3" d="M191.6,204.4c23.8-14.1,37.1-39.4,42.3-65.9,1.8-8.9,2.8-17.9,3.4-27.2,2.2,9.1,2.7,18.6,1.8,28-2.3,27.8-19.1,57.6-47.4,65.1h0Z"/>
            <path class="cls-3" d="M25.7,179c26,35.3,71,36.9,111,35.1,9.6-.1,19-.4,28.6-1.2-12.2,3.9-25.1,5.2-37.8,6.7-37.3,4.5-84.3-2.7-101.9-40.6h0Z"/>
            <path class="cls-3" d="M46.7,48.9c-14.9,12.7-24.8,29.3-28.6,48.2-4.7,23.3-3.4,50.3,3.6,73.2-5.9-9.6-9.3-20.7-11.1-32-5.5-34,3.2-72.6,36.1-89.4h0Z"/>
          </g>
        </g>
        <g>
          <g>
            <path class="cls-2" d="M52.9,95.3v-15.6h5.5c1.9,0,3.3.4,4.3,1.1,1,.7,1.5,1.8,1.5,3.2s-.2,1.4-.6,2c-.4.6-.9,1-1.6,1.3.8.2,1.4.6,1.9,1.2s.7,1.4.7,2.2c0,1.5-.5,2.6-1.4,3.4-1,.8-2.3,1.2-4.1,1.2h-6.1ZM56.1,86.2h2.4c1.6,0,2.4-.7,2.4-1.9s-.2-1.2-.6-1.5c-.4-.3-1.1-.5-1.9-.5h-2.3v3.9ZM56.1,88.5v4.2h2.8c.8,0,1.4-.2,1.8-.5.4-.4.6-.9.6-1.5,0-1.4-.7-2.2-2.2-2.2h-3Z"/>
            <path class="cls-2" d="M80.3,87.8c0,1.5-.3,2.9-.8,4-.5,1.2-1.3,2.1-2.3,2.7-1,.6-2.2.9-3.5.9s-2.5-.3-3.5-.9c-1-.6-1.8-1.5-2.4-2.7-.6-1.2-.8-2.5-.8-4v-.8c0-1.5.3-2.9.8-4.1.6-1.2,1.3-2.1,2.4-2.7,1-.6,2.2-.9,3.5-.9s2.5.3,3.5.9c1,.6,1.8,1.5,2.4,2.7.6,1.2.8,2.5.8,4.1v.7ZM77,87.1c0-1.6-.3-2.9-.9-3.7-.6-.9-1.4-1.3-2.5-1.3s-1.9.4-2.5,1.3c-.6.8-.9,2.1-.9,3.7v.8c0,1.6.3,2.8.9,3.7.6.9,1.4,1.3,2.5,1.3s1.9-.4,2.5-1.3.9-2.1.9-3.7v-.8Z"/>
            <path class="cls-2" d="M96,87.8c0,1.5-.3,2.9-.8,4-.5,1.2-1.3,2.1-2.3,2.7-1,.6-2.2.9-3.5.9s-2.5-.3-3.5-.9c-1-.6-1.8-1.5-2.4-2.7-.6-1.2-.8-2.5-.8-4v-.8c0-1.5.3-2.9.8-4.1.6-1.2,1.3-2.1,2.4-2.7,1-.6,2.2-.9,3.5-.9s2.5.3,3.5.9c1,.6,1.8,1.5,2.4,2.7.6,1.2.8,2.5.8,4.1v.7ZM92.8,87.1c0-1.6-.3-2.9-.9-3.7-.6-.9-1.4-1.3-2.5-1.3s-1.9.4-2.5,1.3c-.6.8-.9,2.1-.9,3.7v.8c0,1.6.3,2.8.9,3.7.6.9,1.4,1.3,2.5,1.3s1.9-.4,2.5-1.3.9-2.1.9-3.7v-.8Z"/>
            <path class="cls-2" d="M103.8,89l-1.7,1.8v4.5h-3.2v-15.6h3.2v7.1l1.4-1.9,4-5.1h4l-5.6,7,5.7,8.7h-3.8l-4-6.3Z"/>
            <path class="cls-2" d="M117.7,79.6l4,11.3,4-11.3h4.2v15.6h-3.2v-4.3l.3-7.4-4.2,11.7h-2.2l-4.2-11.6.3,7.4v4.3h-3.2v-15.6h4.2Z"/>
            <path class="cls-2" d="M142.3,92h-5.7l-1.1,3.2h-3.4l5.8-15.6h3l5.9,15.6h-3.4l-1.1-3.2ZM137.5,89.4h3.9l-2-5.9-1.9,5.9Z"/>
            <path class="cls-2" d="M154.6,89.5h-2.6v5.7h-3.2v-15.6h5.8c1.8,0,3.3.4,4.3,1.2,1,.8,1.5,2,1.5,3.5s-.2,2-.7,2.7c-.5.7-1.2,1.3-2.1,1.7l3.4,6.4v.2h-3.5l-2.9-5.7ZM152,86.9h2.6c.8,0,1.4-.2,1.9-.6.4-.4.7-1,.7-1.7s-.2-1.3-.6-1.7-1.1-.6-1.9-.6h-2.6v4.7Z"/>
            <path class="cls-2" d="M168.3,89l-1.7,1.8v4.5h-3.2v-15.6h3.2v7.1l1.4-1.9,4-5.1h4l-5.6,7,5.7,8.7h-3.8l-4-6.3Z"/>
            <path class="cls-2" d="M186,91.2c0-.6-.2-1.1-.6-1.4-.4-.3-1.2-.7-2.3-1-1.1-.4-2-.7-2.7-1.1-1.8-1-2.7-2.3-2.7-3.9s.2-1.6.7-2.3c.5-.7,1.2-1.2,2.1-1.6s1.9-.6,3-.6,2.1.2,3,.6c.9.4,1.6,1,2,1.7s.7,1.6.7,2.5h-3.2c0-.7-.2-1.3-.7-1.7s-1.1-.6-1.9-.6-1.4.2-1.8.5c-.4.3-.7.8-.7,1.3s.3.9.8,1.3c.5.3,1.3.7,2.3,1,1.8.6,3.2,1.2,4,2.1s1.3,1.8,1.3,3.1-.5,2.4-1.5,3.2c-1,.8-2.4,1.2-4.1,1.2s-2.3-.2-3.3-.7-1.7-1-2.3-1.8c-.5-.8-.8-1.7-.8-2.7h3.2c0,1.7,1,2.6,3.1,2.6s1.4-.2,1.8-.5.6-.7.6-1.3Z"/>
          </g>
          <g>
            <path class="cls-2" d="M55.8,116.9c-.1,1.1-.5,1.9-1.2,2.4-.7.6-1.5.9-2.6.9s-2.1-.4-2.8-1.3c-.7-.8-1.1-2-1.1-3.4v-1c0-.9.2-1.7.5-2.4.3-.7.8-1.2,1.4-1.6s1.3-.6,2.1-.6,1.9.3,2.5.9c.6.6,1,1.4,1.1,2.5h-1.3c-.1-.8-.4-1.4-.7-1.7s-.9-.5-1.6-.5-1.5.3-2,.9-.7,1.5-.7,2.6v1c0,1.1.2,1.9.7,2.6.5.6,1.1,1,1.9,1s1.3-.2,1.7-.5c.4-.3.6-.9.8-1.7h1.3Z"/>
            <path class="cls-2" d="M61.3,113.7c-.2,0-.4,0-.6,0-.8,0-1.4.4-1.7,1.1v5.2h-1.3v-7.4h1.2v.9c.4-.7,1-1,1.8-1s.4,0,.6,0v1.2Z"/>
            <path class="cls-2" d="M65.7,120.1c-1,0-1.8-.3-2.4-1-.6-.7-.9-1.5-.9-2.6v-.2c0-.7.1-1.4.4-2,.3-.6.7-1,1.2-1.4.5-.3,1-.5,1.6-.5,1,0,1.7.3,2.2,1,.5.6.8,1.5.8,2.7v.5h-5c0,.7.2,1.3.6,1.8.4.4.9.7,1.6.7s.8,0,1.1-.3c.3-.2.6-.4.8-.7l.8.6c-.6,1-1.5,1.4-2.8,1.4ZM65.6,113.5c-.5,0-.9.2-1.3.6-.3.4-.6.9-.6,1.6h3.7c0-.7-.2-1.2-.5-1.6-.3-.4-.7-.5-1.3-.5Z"/>
            <path class="cls-2" d="M75,120c0-.1-.1-.4-.2-.8-.6.6-1.3.9-2.1.9s-1.3-.2-1.8-.6c-.5-.4-.7-.9-.7-1.6s.3-1.4.9-1.8c.6-.4,1.4-.6,2.5-.6h1.2v-.6c0-.4-.1-.8-.4-1.1-.3-.3-.7-.4-1.2-.4s-.8.1-1.1.3c-.3.2-.5.5-.5.8h-1.3c0-.4.1-.7.4-1.1.3-.3.6-.6,1.1-.8.4-.2.9-.3,1.5-.3.9,0,1.5.2,2,.6.5.4.7,1,.8,1.8v3.4c0,.7,0,1.2.3,1.6h0c0,.1-1.3.1-1.3.1ZM72.9,119c.4,0,.8-.1,1.1-.3s.6-.5.8-.8v-1.5h-1c-1.5,0-2.3.5-2.3,1.4s.1.7.4.9c.3.2.6.3,1,.3Z"/>
            <path class="cls-2" d="M80.1,110.8v1.8h1.4v1h-1.4v4.6c0,.3,0,.5.2.7.1.1.3.2.6.2s.3,0,.6,0v1c-.3,0-.7.1-1,.1-.6,0-1-.2-1.3-.5s-.4-.8-.4-1.5v-4.6h-1.3v-1h1.3v-1.8h1.3Z"/>
            <path class="cls-2" d="M86.4,120.1c-1,0-1.8-.3-2.4-1-.6-.7-.9-1.5-.9-2.6v-.2c0-.7.1-1.4.4-2,.3-.6.7-1,1.2-1.4.5-.3,1-.5,1.6-.5,1,0,1.7.3,2.2,1,.5.6.8,1.5.8,2.7v.5h-5c0,.7.2,1.3.6,1.8.4.4.9.7,1.6.7s.8,0,1.1-.3c.3-.2.6-.4.8-.7l.8.6c-.6,1-1.5,1.4-2.8,1.4ZM86.2,113.5c-.5,0-.9.2-1.3.6-.3.4-.6.9-.6,1.6h3.7c0-.7-.2-1.2-.5-1.6-.3-.4-.7-.5-1.3-.5Z"/>
            <path class="cls-2" d="M97.3,118.2l1.7-5.5h1.4l-3,8.5c-.5,1.2-1.2,1.8-2.2,1.8h-.2s-.5-.1-.5-.1v-1h.3c.4,0,.8,0,1-.2.2-.2.4-.5.6-1l.3-.8-2.6-7.3h1.4l1.8,5.5Z"/>
            <path class="cls-2" d="M101.5,116.2c0-.7.1-1.4.4-2,.3-.6.7-1,1.2-1.3s1.1-.5,1.7-.5c1,0,1.8.3,2.4,1s.9,1.6.9,2.8h0c0,.8-.1,1.5-.4,2-.3.6-.7,1-1.2,1.3-.5.3-1.1.5-1.8.5-1,0-1.8-.3-2.4-1s-.9-1.6-.9-2.8h0ZM102.7,116.4c0,.8.2,1.5.6,2,.4.5.9.7,1.5.7s1.2-.3,1.5-.8c.4-.5.6-1.2.6-2.1s-.2-1.5-.6-2c-.4-.5-.9-.8-1.5-.8s-1.1.2-1.5.7c-.4.5-.6,1.2-.6,2.1Z"/>
            <path class="cls-2" d="M114.7,119.3c-.5.6-1.2.9-2.2.9s-1.4-.2-1.8-.7-.6-1.1-.6-2v-4.8h1.3v4.8c0,1.1.5,1.7,1.4,1.7s1.6-.4,1.9-1.1v-5.4h1.3v7.4h-1.2v-.7Z"/>
            <path class="cls-2" d="M121.8,113.7c-.2,0-.4,0-.6,0-.8,0-1.4.4-1.7,1.1v5.2h-1.3v-7.4h1.2v.9c.4-.7,1-1,1.8-1s.4,0,.6,0v1.2Z"/>
            <path class="cls-2" d="M126.8,116.2c0-.7.1-1.4.4-2,.3-.6.7-1,1.2-1.3s1.1-.5,1.7-.5c1,0,1.8.3,2.4,1s.9,1.6.9,2.8h0c0,.8-.1,1.5-.4,2-.3.6-.7,1-1.2,1.3-.5.3-1.1.5-1.8.5-1,0-1.8-.3-2.4-1s-.9-1.6-.9-2.8h0ZM128,116.4c0,.8.2,1.5.6,2,.4.5.9.7,1.5.7s1.2-.3,1.5-.8c.4-.5.6-1.2.6-2.1s-.2-1.5-.6-2c-.4-.5-.9-.8-1.5-.8s-1.1.2-1.5.7c-.4.5-.6,1.2-.6,2.1Z"/>
            <path class="cls-2" d="M142,118.3l1.4-5.7h1.3l-2.2,7.4h-1l-1.8-5.6-1.8,5.6h-1l-2.1-7.4h1.3l1.5,5.5,1.7-5.5h1l1.8,5.7Z"/>
            <path class="cls-2" d="M147.5,112.6v.9c.6-.7,1.3-1.1,2.3-1.1,1.6,0,2.4.9,2.4,2.6v4.9h-1.3v-4.9c0-.5-.1-.9-.4-1.2-.2-.3-.6-.4-1.1-.4s-.8.1-1.1.3-.6.5-.7.9v5.3h-1.3v-7.4h1.2Z"/>
            <path class="cls-2" d="M159.6,120h-1.3v-10.5h1.3v10.5Z"/>
            <path class="cls-2" d="M161.9,110.7c0-.2,0-.4.2-.5.1-.1.3-.2.6-.2s.4,0,.6.2c.1.1.2.3.2.5s0,.4-.2.5-.3.2-.6.2-.4,0-.6-.2-.2-.3-.2-.5ZM163.3,120h-1.3v-7.4h1.3v7.4Z"/>
            <path class="cls-2" d="M170,118c0-.3-.1-.6-.4-.8-.3-.2-.7-.4-1.3-.5s-1.1-.3-1.5-.5-.7-.4-.8-.7c-.2-.3-.3-.6-.3-.9,0-.6.3-1.1.8-1.5.5-.4,1.2-.6,2-.6s1.5.2,2,.6c.5.4.8,1,.8,1.7h-1.3c0-.3-.1-.6-.4-.9-.3-.2-.7-.4-1.1-.4s-.8.1-1.1.3c-.3.2-.4.5-.4.8s.1.5.4.7c.2.2.7.3,1.3.4.6.1,1.1.3,1.5.5.4.2.7.4.9.7.2.3.3.6.3,1,0,.7-.3,1.2-.8,1.6-.5.4-1.2.6-2.1.6s-1.1-.1-1.6-.3c-.5-.2-.8-.5-1.1-.9s-.4-.8-.4-1.2h1.3c0,.4.2.8.5,1,.3.2.7.4,1.3.4s.9,0,1.2-.3c.3-.2.4-.5.4-.8Z"/>
            <path class="cls-2" d="M175,110.8v1.8h1.4v1h-1.4v4.6c0,.3,0,.5.2.7.1.1.3.2.6.2s.3,0,.6,0v1c-.3,0-.7.1-1,.1-.6,0-1-.2-1.3-.5s-.4-.8-.4-1.5v-4.6h-1.3v-1h1.3v-1.8h1.3Z"/>
            <path class="cls-2" d="M181.7,116.2c0-.7.1-1.4.4-2,.3-.6.7-1,1.2-1.3s1.1-.5,1.7-.5c1,0,1.8.3,2.4,1s.9,1.6.9,2.8h0c0,.8-.1,1.5-.4,2-.3.6-.7,1-1.2,1.3-.5.3-1.1.5-1.8.5-1,0-1.8-.3-2.4-1s-.9-1.6-.9-2.8h0ZM182.9,116.4c0,.8.2,1.5.6,2,.4.5.9.7,1.5.7s1.2-.3,1.5-.8c.4-.5.6-1.2.6-2.1s-.2-1.5-.6-2c-.4-.5-.9-.8-1.5-.8s-1.1.2-1.5.7c-.4.5-.6,1.2-.6,2.1Z"/>
            <path class="cls-2" d="M190.9,120v-6.4h-1.2v-1h1.2v-.8c0-.8.2-1.4.6-1.8.4-.4,1-.6,1.8-.6s.6,0,.9.1v1c-.3,0-.5,0-.8,0-.4,0-.7.1-1,.4s-.3.6-.3,1v.8h1.6v1h-1.6v6.4h-1.3Z"/>
            <path class="cls-2" d="M49.1,133.2c0,1.1-.3,2-.8,2.7-.5.7-1.2,1-2.1,1s-1.7-.3-2.2-1v.9h-1.2v-10.5h1.3v3.9c.5-.6,1.2-1,2.1-1s1.6.3,2.1,1c.5.7.8,1.6.8,2.8h0ZM47.8,133c0-.9-.2-1.5-.5-2-.3-.5-.8-.7-1.4-.7s-1.4.4-1.8,1.2v3.2c.4.8,1,1.2,1.8,1.2s1.1-.2,1.4-.7c.3-.5.5-1.2.5-2.1Z"/>
            <path class="cls-2" d="M50.7,133c0-.7.1-1.4.4-2,.3-.6.7-1,1.2-1.3s1.1-.5,1.7-.5c1,0,1.8.3,2.4,1s.9,1.6.9,2.8h0c0,.8-.1,1.5-.4,2-.3.6-.7,1-1.2,1.3-.5.3-1.1.5-1.8.5-1,0-1.8-.3-2.4-1s-.9-1.6-.9-2.8h0ZM51.9,133.2c0,.8.2,1.5.6,2,.4.5.9.7,1.5.7s1.2-.3,1.5-.8c.4-.5.6-1.2.6-2.1s-.2-1.5-.6-2c-.4-.5-.9-.8-1.5-.8s-1.1.2-1.5.7c-.4.5-.6,1.2-.6,2.1Z"/>
            <path class="cls-2" d="M59,133c0-.7.1-1.4.4-2,.3-.6.7-1,1.2-1.3s1.1-.5,1.7-.5c1,0,1.8.3,2.4,1s.9,1.6.9,2.8h0c0,.8-.1,1.5-.4,2-.3.6-.7,1-1.2,1.3-.5.3-1.1.5-1.8.5-1,0-1.8-.3-2.4-1s-.9-1.6-.9-2.8h0ZM60.3,133.2c0,.8.2,1.5.6,2,.4.5.9.7,1.5.7s1.2-.3,1.5-.8c.4-.5.6-1.2.6-2.1s-.2-1.5-.6-2c-.4-.5-.9-.8-1.5-.8s-1.1.2-1.5.7c-.4.5-.6,1.2-.6,2.1Z"/>
            <path class="cls-2" d="M69.7,133.4l-.8.8v2.6h-1.3v-10.5h1.3v6.4l.7-.8,2.3-2.4h1.5l-2.9,3.1,3.2,4.3h-1.5l-2.6-3.4Z"/>
            <path class="cls-2" d="M76.3,129.4v.8c.6-.6,1.3-1,2.2-1s1.7.4,2.1,1.2c.2-.4.6-.6,1-.9s.9-.3,1.4-.3c1.6,0,2.4.9,2.5,2.6v5h-1.3v-4.9c0-.5-.1-.9-.4-1.2-.2-.3-.6-.4-1.2-.4s-.9.1-1.2.4-.5.7-.5,1.1v4.9h-1.3v-4.8c0-1.1-.5-1.6-1.6-1.6s-1.4.4-1.7,1.1v5.4h-1.3v-7.4h1.2Z"/>
            <path class="cls-2" d="M92.3,136.8c0-.1-.1-.4-.2-.8-.6.6-1.3.9-2.1.9s-1.3-.2-1.8-.6c-.5-.4-.7-.9-.7-1.6s.3-1.4.9-1.8c.6-.4,1.4-.6,2.5-.6h1.2v-.6c0-.4-.1-.8-.4-1.1-.3-.3-.7-.4-1.2-.4s-.8.1-1.1.3c-.3.2-.5.5-.5.8h-1.3c0-.4.1-.7.4-1.1.3-.3.6-.6,1.1-.8.4-.2.9-.3,1.5-.3.9,0,1.5.2,2,.6.5.4.7,1,.8,1.8v3.4c0,.7,0,1.2.3,1.6h0c0,.1-1.3.1-1.3.1ZM90.2,135.8c.4,0,.8-.1,1.1-.3s.6-.5.8-.8v-1.5h-1c-1.5,0-2.3.5-2.3,1.4s.1.7.4.9c.3.2.6.3,1,.3Z"/>
            <path class="cls-2" d="M99.3,130.5c-.2,0-.4,0-.6,0-.8,0-1.4.4-1.7,1.1v5.2h-1.3v-7.4h1.2v.9c.4-.7,1-1,1.8-1s.4,0,.6,0v1.2Z"/>
            <path class="cls-2" d="M102.9,133.4l-.8.8v2.6h-1.3v-10.5h1.3v6.4l.7-.8,2.3-2.4h1.5l-2.9,3.1,3.2,4.3h-1.5l-2.6-3.4Z"/>
            <path class="cls-2" d="M111.2,136.9c-1,0-1.8-.3-2.4-1-.6-.7-.9-1.5-.9-2.6v-.2c0-.7.1-1.4.4-2,.3-.6.7-1,1.2-1.4.5-.3,1-.5,1.6-.5,1,0,1.7.3,2.2,1,.5.6.8,1.5.8,2.7v.5h-5c0,.7.2,1.3.6,1.8.4.4.9.7,1.6.7s.8,0,1.1-.3c.3-.2.6-.4.8-.7l.8.6c-.6,1-1.5,1.4-2.8,1.4ZM111,130.3c-.5,0-.9.2-1.3.6-.3.4-.6.9-.6,1.6h3.7c0-.7-.2-1.2-.5-1.6-.3-.4-.7-.5-1.3-.5Z"/>
            <path class="cls-2" d="M115.6,133c0-1.1.3-2,.8-2.7s1.2-1,2.1-1,1.6.3,2.1.9v-3.9h1.3v10.5h-1.2v-.8c-.6.6-1.3.9-2.2.9s-1.6-.4-2.1-1.1c-.5-.7-.8-1.6-.8-2.7h0ZM116.8,133.2c0,.8.2,1.5.5,2,.3.5.8.7,1.4.7s1.4-.4,1.8-1.1v-3.4c-.4-.7-1-1-1.7-1s-1.1.2-1.4.7-.5,1.2-.5,2.1Z"/>
            <path class="cls-2" d="M127.6,133c0-1.2.3-2.1.8-2.8s1.2-1,2.1-1,1.6.3,2.1.9v-.7h1.2v10.2h-1.3v-3.5c-.5.5-1.2.8-2,.8s-1.6-.3-2.1-1c-.5-.7-.8-1.6-.8-2.8h0ZM128.9,133.2c0,.8.2,1.5.5,2,.4.5.8.7,1.4.7s1.3-.3,1.7-1v-3.6c-.4-.7-1-1-1.7-1s-1.1.2-1.5.7-.5,1.2-.5,2.1Z"/>
            <path class="cls-2" d="M140.8,136.1c-.5.6-1.2.9-2.2.9s-1.4-.2-1.8-.7-.6-1.1-.6-2v-4.8h1.3v4.8c0,1.1.5,1.7,1.4,1.7s1.6-.4,1.9-1.1v-5.4h1.3v7.4h-1.2v-.7Z"/>
            <path class="cls-2" d="M144,133c0-.7.1-1.4.4-2,.3-.6.7-1,1.2-1.3s1.1-.5,1.7-.5c1,0,1.8.3,2.4,1s.9,1.6.9,2.8h0c0,.8-.1,1.5-.4,2-.3.6-.7,1-1.2,1.3-.5.3-1.1.5-1.8.5-1,0-1.8-.3-2.4-1s-.9-1.6-.9-2.8h0ZM145.2,133.2c0,.8.2,1.5.6,2,.4.5.9.7,1.5.7s1.2-.3,1.5-.8c.4-.5.6-1.2.6-2.1s-.2-1.5-.6-2c-.4-.5-.9-.8-1.5-.8s-1.1.2-1.5.7c-.4.5-.6,1.2-.6,2.1Z"/>
            <path class="cls-2" d="M154.4,127.6v1.8h1.4v1h-1.4v4.6c0,.3,0,.5.2.7.1.1.3.2.6.2s.3,0,.6,0v1c-.3,0-.7.1-1,.1-.6,0-1-.2-1.3-.5s-.4-.8-.4-1.5v-4.6h-1.3v-1h1.3v-1.8h1.3Z"/>
            <path class="cls-2" d="M160.6,136.9c-1,0-1.8-.3-2.4-1-.6-.7-.9-1.5-.9-2.6v-.2c0-.7.1-1.4.4-2,.3-.6.7-1,1.2-1.4.5-.3,1-.5,1.6-.5,1,0,1.7.3,2.2,1,.5.6.8,1.5.8,2.7v.5h-5c0,.7.2,1.3.6,1.8.4.4.9.7,1.6.7s.8,0,1.1-.3c.3-.2.6-.4.8-.7l.8.6c-.6,1-1.5,1.4-2.8,1.4ZM160.5,130.3c-.5,0-.9.2-1.3.6-.3.4-.6.9-.6,1.6h3.7c0-.7-.2-1.2-.5-1.6-.3-.4-.7-.5-1.3-.5Z"/>
            <path class="cls-2" d="M169.6,134.8c0-.3-.1-.6-.4-.8-.3-.2-.7-.4-1.3-.5s-1.1-.3-1.5-.5-.7-.4-.8-.7c-.2-.3-.3-.6-.3-.9,0-.6.3-1.1.8-1.5.5-.4,1.2-.6,2-.6s1.5.2,2,.6c.5.4.8,1,.8,1.7h-1.3c0-.3-.1-.6-.4-.9-.3-.2-.7-.4-1.1-.4s-.8.1-1.1.3c-.3.2-.4.5-.4.8s.1.5.4.7c.2.2.7.3,1.3.4.6.1,1.1.3,1.5.5.4.2.7.4.9.7.2.3.3.6.3,1,0,.7-.3,1.2-.8,1.6-.5.4-1.2.6-2.1.6s-1.1-.1-1.6-.3c-.5-.2-.8-.5-1.1-.9s-.4-.8-.4-1.2h1.3c0,.4.2.8.5,1,.3.2.7.4,1.3.4s.9,0,1.2-.3c.3-.2.4-.5.4-.8Z"/>
            <path class="cls-2" d="M181.3,136.8c0-.1-.1-.4-.2-.8-.6.6-1.3.9-2.1.9s-1.3-.2-1.8-.6c-.5-.4-.7-.9-.7-1.6s.3-1.4.9-1.8c.6-.4,1.4-.6,2.5-.6h1.2v-.6c0-.4-.1-.8-.4-1.1-.3-.3-.7-.4-1.2-.4s-.8.1-1.1.3c-.3.2-.5.5-.5.8h-1.3c0-.4.1-.7.4-1.1.3-.3.6-.6,1.1-.8.4-.2.9-.3,1.5-.3.9,0,1.5.2,2,.6.5.4.7,1,.8,1.8v3.4c0,.7,0,1.2.3,1.6h0c0,.1-1.3.1-1.3.1ZM179.2,135.8c.4,0,.8-.1,1.1-.3s.6-.5.8-.8v-1.5h-1c-1.5,0-2.3.5-2.3,1.4s.1.7.4.9c.3.2.6.3,1,.3Z"/>
            <path class="cls-2" d="M185.9,129.4v.9c.6-.7,1.3-1.1,2.3-1.1,1.6,0,2.4.9,2.4,2.6v4.9h-1.3v-4.9c0-.5-.1-.9-.4-1.2-.2-.3-.6-.4-1.1-.4s-.8.1-1.1.3-.6.5-.7.9v5.3h-1.3v-7.4h1.2Z"/>
            <path class="cls-2" d="M192.4,133c0-1.1.3-2,.8-2.7s1.2-1,2.1-1,1.6.3,2.1.9v-3.9h1.3v10.5h-1.2v-.8c-.6.6-1.3.9-2.2.9s-1.6-.4-2.1-1.1c-.5-.7-.8-1.6-.8-2.7h0ZM193.7,133.2c0,.8.2,1.5.5,2,.3.5.8.7,1.4.7s1.4-.4,1.8-1.1v-3.4c-.4-.7-1-1-1.7-1s-1.1.2-1.4.7-.5,1.2-.5,2.1Z"/>
            <path class="cls-2" d="M56.7,153.6c0-.1-.1-.4-.2-.8-.6.6-1.3.9-2.1.9s-1.3-.2-1.8-.6c-.5-.4-.7-.9-.7-1.6s.3-1.4.9-1.8c.6-.4,1.4-.6,2.5-.6h1.2v-.6c0-.4-.1-.8-.4-1.1-.3-.3-.7-.4-1.2-.4s-.8.1-1.1.3c-.3.2-.5.5-.5.8h-1.3c0-.4.1-.7.4-1.1.3-.3.6-.6,1.1-.8.4-.2.9-.3,1.5-.3.9,0,1.5.2,2,.6.5.4.7,1,.8,1.8v3.4c0,.7,0,1.2.3,1.6h0c0,.1-1.3.1-1.3.1ZM54.6,152.6c.4,0,.8-.1,1.1-.3s.6-.5.8-.8v-1.5h-1c-1.5,0-2.3.5-2.3,1.4s.1.7.4.9c.3.2.6.3,1,.3Z"/>
            <path class="cls-2" d="M64.6,152.9c-.5.6-1.2.9-2.2.9s-1.4-.2-1.8-.7-.6-1.1-.6-2v-4.8h1.3v4.8c0,1.1.5,1.7,1.4,1.7s1.6-.4,1.9-1.1v-5.4h1.3v7.4h-1.2v-.7Z"/>
            <path class="cls-2" d="M69.8,144.4v1.8h1.4v1h-1.4v4.6c0,.3,0,.5.2.7s.3.2.6.2.3,0,.6,0v1c-.3,0-.7.1-1,.1-.6,0-1-.2-1.3-.5s-.4-.8-.4-1.5v-4.6h-1.3v-1h1.3v-1.8h1.3Z"/>
            <path class="cls-2" d="M74.3,147.1c.6-.7,1.3-1,2.2-1,1.6,0,2.4.9,2.4,2.6v4.9h-1.3v-4.9c0-.5-.1-.9-.4-1.2-.2-.3-.6-.4-1.1-.4s-.8.1-1.1.3-.6.5-.7.9v5.3h-1.3v-10.5h1.3v4Z"/>
            <path class="cls-2" d="M80.8,149.8c0-.7.1-1.4.4-2,.3-.6.7-1,1.2-1.3s1.1-.5,1.7-.5c1,0,1.8.3,2.4,1s.9,1.6.9,2.8h0c0,.8-.1,1.5-.4,2-.3.6-.7,1-1.2,1.3-.5.3-1.1.5-1.8.5-1,0-1.8-.3-2.4-1s-.9-1.6-.9-2.8h0ZM82,150c0,.8.2,1.5.6,2,.4.5.9.7,1.5.7s1.2-.3,1.5-.8c.4-.5.6-1.2.6-2.1s-.2-1.5-.6-2c-.4-.5-.9-.8-1.5-.8s-1.1.2-1.5.7c-.4.5-.6,1.2-.6,2.1Z"/>
            <path class="cls-2" d="M93,147.3c-.2,0-.4,0-.6,0-.8,0-1.4.4-1.7,1.1v5.2h-1.3v-7.4h1.2v.9c.4-.7,1-1,1.8-1s.4,0,.6,0v1.2Z"/>
            <path class="cls-2" d="M98.8,151.6c0-.3-.1-.6-.4-.8-.3-.2-.7-.4-1.3-.5s-1.1-.3-1.5-.5-.7-.4-.8-.7c-.2-.3-.3-.6-.3-.9,0-.6.3-1.1.8-1.5.5-.4,1.2-.6,2-.6s1.5.2,2,.6c.5.4.8,1,.8,1.7h-1.3c0-.3-.1-.6-.4-.9-.3-.3-.7-.4-1.1-.4s-.8,0-1.1.3c-.3.2-.4.5-.4.8s.1.5.4.7c.2.2.7.3,1.3.4.6.1,1.1.3,1.5.5.4.2.7.4.9.7.2.3.3.6.3,1,0,.7-.3,1.2-.8,1.6-.5.4-1.2.6-2.1.6s-1.1-.1-1.6-.3c-.5-.2-.8-.5-1.1-.9s-.4-.8-.4-1.2h1.3c0,.4.2.8.5,1,.3.2.7.4,1.3.4s.9,0,1.2-.3c.3-.2.4-.5.4-.8Z"/>
            <path class="cls-2" d="M106.5,153.6v-6.4h-1.2v-1h1.2v-.8c0-.8.2-1.4.6-1.8.4-.4,1-.6,1.8-.6s.6,0,.9.1v1c-.3,0-.5,0-.8,0-.4,0-.7.1-1,.4-.2.2-.3.6-.3,1v.8h1.6v1h-1.6v6.4h-1.3Z"/>
            <path class="cls-2" d="M110.8,149.8c0-.7.1-1.4.4-2,.3-.6.7-1,1.2-1.3s1.1-.5,1.7-.5c1,0,1.8.3,2.4,1s.9,1.6.9,2.8h0c0,.8-.1,1.5-.4,2-.3.6-.7,1-1.2,1.3-.5.3-1.1.5-1.8.5-1,0-1.8-.3-2.4-1s-.9-1.6-.9-2.8h0ZM112.1,150c0,.8.2,1.5.6,2,.4.5.9.7,1.5.7s1.2-.3,1.5-.8c.4-.5.6-1.2.6-2.1s-.2-1.5-.6-2c-.4-.5-.9-.8-1.5-.8s-1.1.2-1.5.7c-.4.5-.6,1.2-.6,2.1Z"/>
            <path class="cls-2" d="M123,147.3c-.2,0-.4,0-.6,0-.8,0-1.4.4-1.7,1.1v5.2h-1.3v-7.4h1.2v.9c.4-.7,1-1,1.8-1s.4,0,.6,0v1.2Z"/>
            <path class="cls-2" d="M128.1,149.8c0-1.2.3-2.1.8-2.8s1.2-1,2.1-1,1.6.3,2.1.9v-.7h1.2v10.2h-1.3v-3.5c-.5.5-1.2.8-2,.8s-1.6-.3-2.1-1c-.5-.7-.8-1.6-.8-2.8h0ZM129.3,150c0,.8.2,1.5.5,2,.4.5.8.7,1.4.7s1.3-.3,1.7-1v-3.6c-.4-.7-1-1-1.7-1s-1.1.2-1.5.7-.5,1.2-.5,2.2Z"/>
            <path class="cls-2" d="M141.2,152.9c-.5.6-1.2.9-2.2.9s-1.4-.2-1.8-.7-.6-1.1-.6-2v-4.8h1.3v4.8c0,1.1.5,1.7,1.4,1.7s1.6-.4,1.9-1.1v-5.4h1.3v7.4h-1.2v-.7Z"/>
            <path class="cls-2" d="M144.7,144.3c0-.2,0-.4.2-.5.1-.1.3-.2.6-.2s.4,0,.6.2c.1.1.2.3.2.5s0,.4-.2.5-.3.2-.6.2-.4,0-.6-.2-.2-.3-.2-.5ZM146.1,153.6h-1.3v-7.4h1.3v7.4Z"/>
            <path class="cls-2" d="M151.4,152.7c.5,0,.8-.1,1.2-.4s.5-.6.6-1h1.2c0,.4-.2.8-.4,1.2s-.6.7-1.1.9c-.4.2-.9.3-1.4.3-1,0-1.8-.3-2.4-1-.6-.7-.9-1.6-.9-2.8v-.2c0-.7.1-1.4.4-1.9s.6-1,1.1-1.3c.5-.3,1.1-.5,1.8-.5s1.5.2,2.1.7c.5.5.8,1.1.9,1.9h-1.2c0-.5-.2-.9-.5-1.2s-.7-.5-1.2-.5-1.1.2-1.5.7c-.4.5-.5,1.1-.5,2v.2c0,.9.2,1.5.5,2,.4.5.9.7,1.5.7Z"/>
            <path class="cls-2" d="M158.2,150.2l-.8.8v2.6h-1.3v-10.5h1.3v6.4l.7-.8,2.3-2.4h1.5l-2.9,3.1,3.2,4.3h-1.5l-2.6-3.4Z"/>
            <path class="cls-2" d="M172,153.6c0-.1-.1-.4-.2-.8-.6.6-1.3.9-2.1.9s-1.3-.2-1.8-.6c-.5-.4-.7-.9-.7-1.6s.3-1.4.9-1.8c.6-.4,1.4-.6,2.5-.6h1.2v-.6c0-.4-.1-.8-.4-1.1-.3-.3-.7-.4-1.2-.4s-.8.1-1.1.3c-.3.2-.5.5-.5.8h-1.3c0-.4.1-.7.4-1.1.3-.3.6-.6,1.1-.8.4-.2.9-.3,1.5-.3.9,0,1.5.2,2,.6.5.4.7,1,.8,1.8v3.4c0,.7,0,1.2.3,1.6h0c0,.1-1.3.1-1.3.1ZM169.9,152.6c.4,0,.8-.1,1.1-.3s.6-.5.8-.8v-1.5h-1c-1.5,0-2.3.5-2.3,1.4s.1.7.4.9c.3.2.6.3,1,.3Z"/>
            <path class="cls-2" d="M176.6,146.2v.9c.6-.7,1.3-1.1,2.3-1.1,1.6,0,2.4.9,2.4,2.6v4.9h-1.3v-4.9c0-.5-.1-.9-.4-1.2-.2-.3-.6-.4-1.1-.4s-.8.1-1.1.3-.6.5-.7.9v5.3h-1.3v-7.4h1.2Z"/>
            <path class="cls-2" d="M183.2,149.8c0-1.1.3-2,.8-2.7s1.2-1,2.1-1,1.6.3,2.1.9v-3.9h1.3v10.5h-1.2v-.8c-.6.6-1.3.9-2.2.9s-1.6-.4-2.1-1.1c-.5-.7-.8-1.6-.8-2.7h0ZM184.4,150c0,.8.2,1.5.5,2,.3.5.8.7,1.4.7s1.4-.4,1.8-1.1v-3.4c-.4-.7-1-1-1.7-1s-1.1.2-1.4.7-.5,1.2-.5,2.1Z"/>
            <path class="cls-2" d="M60.7,170.5c-1,0-1.8-.3-2.4-1-.6-.7-.9-1.5-.9-2.6v-.2c0-.7.1-1.4.4-2,.3-.6.7-1,1.2-1.4.5-.3,1-.5,1.6-.5,1,0,1.7.3,2.2,1,.5.6.8,1.5.8,2.7v.5h-5c0,.7.2,1.3.6,1.8.4.4.9.7,1.6.7s.8,0,1.1-.3c.3-.2.6-.4.8-.7l.8.6c-.6,1-1.5,1.4-2.8,1.4ZM60.6,163.9c-.5,0-.9.2-1.3.6-.3.4-.6.9-.6,1.6h3.7c0-.7-.2-1.2-.5-1.6-.3-.4-.7-.5-1.3-.5Z"/>
            <path class="cls-2" d="M70,170.4c0-.1-.1-.4-.2-.8-.6.6-1.3.9-2.1.9s-1.3-.2-1.8-.6c-.5-.4-.7-.9-.7-1.6s.3-1.4.9-1.8c.6-.4,1.4-.6,2.5-.6h1.2v-.6c0-.4-.1-.8-.4-1.1-.3-.3-.7-.4-1.2-.4s-.8.1-1.1.3c-.3.2-.5.5-.5.8h-1.3c0-.4.1-.7.4-1.1.3-.3.6-.6,1.1-.8.4-.2.9-.3,1.5-.3.9,0,1.5.2,2,.6.5.4.7,1,.8,1.8v3.4c0,.7,0,1.2.3,1.6h0c0,.1-1.3.1-1.3.1ZM67.9,169.4c.4,0,.8-.1,1.1-.3s.6-.5.8-.8v-1.5h-1c-1.5,0-2.3.5-2.3,1.4s.1.7.4.9c.3.2.6.3,1,.3Z"/>
            <path class="cls-2" d="M77.7,168.4c0-.3-.1-.6-.4-.8-.3-.2-.7-.4-1.3-.5s-1.1-.3-1.5-.5-.7-.4-.8-.7c-.2-.3-.3-.6-.3-.9,0-.6.3-1.1.8-1.5.5-.4,1.2-.6,2-.6s1.5.2,2,.6c.5.4.8,1,.8,1.7h-1.3c0-.3-.1-.6-.4-.9-.3-.3-.7-.4-1.1-.4s-.8,0-1.1.3c-.3.2-.4.5-.4.8s.1.5.4.7c.2.2.7.3,1.3.4.6.1,1.1.3,1.5.5.4.2.7.4.9.7.2.3.3.6.3,1,0,.7-.3,1.2-.8,1.6-.5.4-1.2.6-2.1.6s-1.1-.1-1.6-.3c-.5-.2-.8-.5-1.1-.9s-.4-.8-.4-1.2h1.3c0,.4.2.8.5,1,.3.2.7.4,1.3.4s.9,0,1.2-.3c.3-.2.4-.5.4-.8Z"/>
            <path class="cls-2" d="M83.4,168.6l1.7-5.5h1.4l-3,8.5c-.5,1.2-1.2,1.8-2.2,1.8h-.2s-.5-.1-.5-.1v-1h.3c.4,0,.8,0,1-.2.2-.2.4-.5.6-1l.3-.8-2.6-7.3h1.4l1.8,5.5Z"/>
            <path class="cls-2" d="M96.3,170.4c0-.1-.1-.4-.2-.8-.6.6-1.3.9-2.1.9s-1.3-.2-1.8-.6c-.5-.4-.7-.9-.7-1.6s.3-1.4.9-1.8c.6-.4,1.4-.6,2.5-.6h1.2v-.6c0-.4-.1-.8-.4-1.1-.3-.3-.7-.4-1.2-.4s-.8.1-1.1.3c-.3.2-.5.5-.5.8h-1.3c0-.4.1-.7.4-1.1.3-.3.6-.6,1.1-.8.4-.2.9-.3,1.5-.3.9,0,1.5.2,2,.6.5.4.7,1,.8,1.8v3.4c0,.7,0,1.2.3,1.6h0c0,.1-1.3.1-1.3.1ZM94.2,169.4c.4,0,.8-.1,1.1-.3s.6-.5.8-.8v-1.5h-1c-1.5,0-2.3.5-2.3,1.4s.1.7.4.9c.3.2.6.3,1,.3Z"/>
            <path class="cls-2" d="M102.7,169.5c.5,0,.8-.1,1.2-.4s.5-.6.6-1h1.2c0,.4-.2.8-.4,1.2s-.6.7-1.1.9c-.4.2-.9.3-1.4.3-1,0-1.8-.3-2.4-1-.6-.7-.9-1.6-.9-2.8v-.2c0-.7.1-1.4.4-1.9s.6-1,1.1-1.3c.5-.3,1.1-.5,1.8-.5s1.5.2,2.1.7c.5.5.8,1.1.9,1.9h-1.2c0-.5-.2-.9-.5-1.2s-.7-.5-1.2-.5-1.1.2-1.5.7c-.4.5-.5,1.1-.5,2v.2c0,.9.2,1.5.5,2,.4.5.9.7,1.5.7Z"/>
            <path class="cls-2" d="M110.4,169.5c.5,0,.8-.1,1.2-.4s.5-.6.6-1h1.2c0,.4-.2.8-.4,1.2s-.6.7-1.1.9c-.4.2-.9.3-1.4.3-1,0-1.8-.3-2.4-1-.6-.7-.9-1.6-.9-2.8v-.2c0-.7.1-1.4.4-1.9s.6-1,1.1-1.3c.5-.3,1.1-.5,1.8-.5s1.5.2,2.1.7c.5.5.8,1.1.9,1.9h-1.2c0-.5-.2-.9-.5-1.2s-.7-.5-1.2-.5-1.1.2-1.5.7c-.4.5-.5,1.1-.5,2v.2c0,.9.2,1.5.5,2,.4.5.9.7,1.5.7Z"/>
            <path class="cls-2" d="M118.2,170.5c-1,0-1.8-.3-2.4-1-.6-.7-.9-1.5-.9-2.6v-.2c0-.7.1-1.4.4-2,.3-.6.7-1,1.2-1.4.5-.3,1-.5,1.6-.5,1,0,1.7.3,2.2,1,.5.6.8,1.5.8,2.7v.5h-5c0,.7.2,1.3.6,1.8.4.4.9.7,1.6.7s.8,0,1.1-.3c.3-.2.6-.4.8-.7l.8.6c-.6,1-1.5,1.4-2.8,1.4ZM118,163.9c-.5,0-.9.2-1.3.6-.3.4-.6.9-.6,1.6h3.7c0-.7-.2-1.2-.5-1.6-.3-.4-.7-.5-1.3-.5Z"/>
            <path class="cls-2" d="M127.2,168.4c0-.3-.1-.6-.4-.8-.3-.2-.7-.4-1.3-.5s-1.1-.3-1.5-.5-.7-.4-.8-.7c-.2-.3-.3-.6-.3-.9,0-.6.3-1.1.8-1.5.5-.4,1.2-.6,2-.6s1.5.2,2,.6c.5.4.8,1,.8,1.7h-1.3c0-.3-.1-.6-.4-.9-.3-.3-.7-.4-1.1-.4s-.8,0-1.1.3c-.3.2-.4.5-.4.8s.1.5.4.7c.2.2.7.3,1.3.4.6.1,1.1.3,1.5.5.4.2.7.4.9.7.2.3.3.6.3,1,0,.7-.3,1.2-.8,1.6-.5.4-1.2.6-2.1.6s-1.1-.1-1.6-.3c-.5-.2-.8-.5-1.1-.9s-.4-.8-.4-1.2h1.3c0,.4.2.8.5,1,.3.2.7.4,1.3.4s.9,0,1.2-.3c.3-.2.4-.5.4-.8Z"/>
            <path class="cls-2" d="M134.7,168.4c0-.3-.1-.6-.4-.8-.3-.2-.7-.4-1.3-.5s-1.1-.3-1.5-.5-.7-.4-.8-.7c-.2-.3-.3-.6-.3-.9,0-.6.3-1.1.8-1.5.5-.4,1.2-.6,2-.6s1.5.2,2,.6c.5.4.8,1,.8,1.7h-1.3c0-.3-.1-.6-.4-.9-.3-.3-.7-.4-1.1-.4s-.8,0-1.1.3c-.3.2-.4.5-.4.8s.1.5.4.7c.2.2.7.3,1.3.4.6.1,1.1.3,1.5.5.4.2.7.4.9.7.2.3.3.6.3,1,0,.7-.3,1.2-.8,1.6-.5.4-1.2.6-2.1.6s-1.1-.1-1.6-.3c-.5-.2-.8-.5-1.1-.9s-.4-.8-.4-1.2h1.3c0,.4.2.8.5,1,.3.2.7.4,1.3.4s.9,0,1.2-.3c.3-.2.4-.5.4-.8Z"/>
            <path class="cls-2" d="M146.4,170.4c0-.1-.1-.4-.2-.8-.6.6-1.3.9-2.1.9s-1.3-.2-1.8-.6c-.5-.4-.7-.9-.7-1.6s.3-1.4.9-1.8c.6-.4,1.4-.6,2.5-.6h1.2v-.6c0-.4-.1-.8-.4-1.1-.3-.3-.7-.4-1.2-.4s-.8.1-1.1.3c-.3.2-.5.5-.5.8h-1.3c0-.4.1-.7.4-1.1.3-.3.6-.6,1.1-.8.4-.2.9-.3,1.5-.3.9,0,1.5.2,2,.6.5.4.7,1,.8,1.8v3.4c0,.7,0,1.2.3,1.6h0c0,.1-1.3.1-1.3.1ZM144.3,169.4c.4,0,.8-.1,1.1-.3s.6-.5.8-.8v-1.5h-1c-1.5,0-2.3.5-2.3,1.4s.1.7.4.9c.3.2.6.3,1,.3Z"/>
            <path class="cls-2" d="M151,163v.9c.6-.7,1.3-1.1,2.3-1.1,1.6,0,2.4.9,2.4,2.6v4.9h-1.3v-4.9c0-.5-.1-.9-.4-1.2-.2-.3-.6-.4-1.1-.4s-.8.1-1.1.3-.6.5-.7.9v5.3h-1.3v-7.4h1.2Z"/>
            <path class="cls-2" d="M160.3,168.6l1.7-5.5h1.4l-3,8.5c-.5,1.2-1.2,1.8-2.2,1.8h-.2s-.5-.1-.5-.1v-1h.3c.4,0,.8,0,1-.2.2-.2.4-.5.6-1l.3-.8-2.6-7.3h1.4l1.8,5.5Z"/>
            <path class="cls-2" d="M166.5,161.2v1.8h1.4v1h-1.4v4.6c0,.3,0,.5.2.7s.3.2.6.2.3,0,.6,0v1c-.3,0-.7.1-1,.1-.6,0-1-.2-1.3-.5s-.4-.8-.4-1.5v-4.6h-1.3v-1h1.3v-1.8h1.3Z"/>
            <path class="cls-2" d="M169.8,161.1c0-.2,0-.4.2-.5.1-.1.3-.2.6-.2s.4,0,.6.2c.1.1.2.3.2.5s0,.4-.2.5-.3.2-.6.2-.4,0-.6-.2-.2-.3-.2-.5ZM171.1,170.4h-1.3v-7.4h1.3v7.4Z"/>
            <path class="cls-2" d="M174.7,163v.8c.6-.6,1.3-1,2.2-1s1.7.4,2.1,1.2c.2-.4.6-.6,1-.9s.9-.3,1.4-.3c1.6,0,2.4.9,2.5,2.6v5h-1.3v-4.9c0-.5-.1-.9-.4-1.2-.2-.3-.6-.4-1.2-.4s-.9.1-1.2.4-.5.7-.5,1.1v4.9h-1.3v-4.8c0-1.1-.5-1.6-1.6-1.6s-1.4.4-1.7,1.1v5.4h-1.3v-7.4h1.2Z"/>
          </g>
        </g>
      </g>
      <g class="cls-10">
        <rect class="cls-9" x="136" y="138.2" width="116.3" height="116.3" transform="translate(388.4 392.8) rotate(180)"/>
      </g>
      <g class="cls-6">
        <rect class="cls-9" x="136" y="138.2" width="116.3" height="116.3" transform="translate(388.4 392.8) rotate(180)"/>
      </g>
      <g class="cls-8">
        <rect class="cls-1" x="-1" y="-14" width="116.3" height="116.3"/>
      </g>
      <g class="cls-7">
        <rect class="cls-5" x="-1" y="-14" width="116.3" height="116.3"/>
      </g>
    </g>
  </g>
</svg>