<?xml version="1.0" encoding="UTF-8"?>
<!--
  - Copyright 2024 NGApps Dev (https://github.com/ngapp-dev). All rights reserved.
  -
  - Licensed under the Apache License, Version 2.0 (the "License");
  - you may not use this file except in compliance with the License.
  - You may obtain a copy of the License at
  -
  - http://www.apache.org/licenses/LICENSE-2.0
  -
  - Unless required by applicable law or agreed to in writing, software
  - distributed under the License is distributed on an "AS IS" BASIS,
  - WITHOUT WARRANTIES OR CONDITIONS OF ANY KIND, either express or implied.
  -
  - See the License for the specific language governing permissions and
  - limitations under the License.
  -->

<svg xmlns="http://www.w3.org/2000/svg" version="1.1" viewBox="0 0 137.9 19.1">
  <defs>
    <style>
      .cls-1 {
        clip-path: url(#clippath-6);
      }

      .cls-2 {
        clip-path: url(#clippath-7);
      }

      .cls-3 {
        clip-path: url(#clippath-4);
      }

      .cls-4 {
        fill: none;
      }

      .cls-5 {
        clip-path: url(#clippath-1);
      }

      .cls-6 {
        clip-path: url(#clippath-5);
      }

      .cls-7 {
        clip-path: url(#clippath-8);
      }

      .cls-8 {
        clip-path: url(#clippath-3);
      }

      .cls-9 {
        clip-path: url(#clippath-2);
      }

      .cls-10 {
        fill: url(#linear-gradient);
      }

      .cls-11 {
        clip-path: url(#clippath);
      }
    </style>
    <clipPath id="clippath">
      <path class="cls-4" d="M53.6,9.6c0-1.9-.4-3.5-1.2-5-.8-1.4-1.9-2.5-3.4-3.3-1.5-.8-3.2-1.2-5.3-1.2s-3.8.4-5.3,1.2c-1.5.8-2.6,1.9-3.4,3.3-.8,1.4-1.2,3.1-1.2,5s.4,3.5,1.2,5c.8,1.4,1.9,2.5,3.4,3.3,1.5.8,3.2,1.2,5.3,1.2s3.8-.4,5.3-1.2c.1,0,.2-.1.3-.2l1.6,1.4,2.3-2.1-1.5-1.4c.2-.3.5-.7.7-1,.8-1.4,1.2-3.1,1.2-5ZM47.3,11.7l-2.4,2.1,1.6,1.5c-.8.4-1.8.6-2.9.6-1.3,0-2.4-.3-3.2-.8-.9-.5-1.5-1.2-1.9-2.2-.4-.9-.6-2-.6-3.3s.2-2.4.6-3.3,1.1-1.7,1.9-2.2c.9-.5,1.9-.8,3.2-.7,1.3,0,2.4.3,3.2.8s1.5,1.2,1.9,2.2c.4.9.6,2,.6,3.3s-.2,2.4-.6,3.3c0,0,0,0,0,0l-1.5-1.3Z"/>
    </clipPath>
    <linearGradient id="linear-gradient" x1="-11.8" y1="9.6" x2="149.9" y2="9.6" gradientUnits="userSpaceOnUse">
      <stop offset="0" stop-color="#2187fd"/>
      <stop offset="0" stop-color="#1e6ad7"/>
      <stop offset="1" stop-color="#1f4f98"/>
    </linearGradient>
    <clipPath id="clippath-1">
      <path class="cls-4" d="M66.5,12c0,.8-.1,1.5-.3,2-.2.5-.5.9-.8,1.2-.3.3-.7.4-1.1.5-.4,0-.7.1-1.1.1-.8,0-1.5-.2-1.9-.5s-.8-.7-1-1.2c-.2-.5-.3-1-.4-1.5s0-.9,0-1.2v-6.4h-3.9v7.7c0,.2,0,.6,0,1.1,0,.5.1,1,.3,1.6.2.6.5,1.2.9,1.7.4.6,1,1,1.8,1.4.8.4,1.7.5,2.9.5s2.7-.3,3.7-.9c.5-.3.9-.6,1.2-.9v1.4h3.4V5.1h-3.9v6.9Z"/>
    </clipPath>
    <clipPath id="clippath-2">
      <rect class="cls-4" x="115.8" y=".2" width="3.8" height="3"/>
    </clipPath>
    <clipPath id="clippath-3">
      <path class="cls-4" d="M136,12.9h1.9c.2-1.7,0-3.1-.6-4.3-.5-1.2-1.4-2.2-2.5-2.8-1.1-.7-2.5-1-4.1-1s-2.8.3-4,.9c-1.2.6-2.1,1.5-2.7,2.6-.7,1.1-1,2.4-1,3.9s.3,2.6,1,3.6c.7,1.1,1.6,1.9,2.8,2.5,1.2.6,2.6.9,4.1.9s2.8-.3,4.1-1,2.1-1.7,2.7-2.9l-3.8-1c-.3.6-.7,1-1.2,1.3s-1.2.4-1.9.4c-1.2,0-2.1-.3-2.7-1-.5-.5-.7-1.2-.9-2h8.9ZM130.9,7.7c1.1,0,1.9.3,2.4.9.3.4.5,1,.6,1.7h-6.7c.2-.6.4-1.2.7-1.6.6-.7,1.6-1.1,2.9-1.1Z"/>
    </clipPath>
    <clipPath id="clippath-4">
      <path class="cls-4" d="M85.3,5.6c-1.2-.6-2.5-.9-4-.9s-2.8.3-4,.9-2.1,1.5-2.7,2.5c-.7,1.1-1,2.3-1,3.8s.3,2.7,1,3.7c.6,1.1,1.5,1.9,2.7,2.5,1.2.6,2.5.9,4,.9s2.9-.3,4-.9c1.2-.6,2.1-1.5,2.7-2.5.7-1.1,1-2.3,1-3.7s-.3-2.7-1-3.7c-.6-1.1-1.6-1.9-2.7-2.5ZM84,14.8c-.6.7-1.5,1.1-2.8,1.1s-2.1-.4-2.7-1.1c-.6-.7-.9-1.7-.9-2.9s.1-1.5.4-2.1c.3-.6.7-1.1,1.2-1.4s1.2-.5,2.1-.5c1.2,0,2.1.4,2.7,1.1.6.7.9,1.7.9,2.9s-.3,2.1-.9,2.9Z"/>
    </clipPath>
    <clipPath id="clippath-5">
      <rect class="cls-4" x="115.8" y="5.1" width="3.8" height="13.6"/>
    </clipPath>
    <clipPath id="clippath-6">
      <path class="cls-4" d="M107.7,1.3h-3.8v3.8h-7V1.3h-3.8v3.8h-2.6v2.7h2.6v5.2c0,.8,0,1.5,0,2.2,0,.6.2,1.3.6,1.9.4.7,1,1.1,1.8,1.4s1.7.5,2.7.5c1,0,2,0,3.1-.2v-2.9c-.9.1-1.7.1-2.5.1-.7,0-1.3-.3-1.6-.8-.2-.3-.3-.6-.3-1,0-.4,0-.9,0-1.4v-5h7v5.2c0,.8,0,1.5,0,2.2,0,.6.2,1.3.6,1.9.4.7,1,1.1,1.8,1.4s1.7.5,2.7.5c1,0,2,0,3.1-.2v-2.9c-.9.1-1.7.1-2.5.1-.7,0-1.3-.3-1.6-.8-.2-.3-.3-.6-.3-1,0-.4,0-.9,0-1.4v-5h4.4v-2.7h-4.4V1.3Z"/>
    </clipPath>
    <clipPath id="clippath-7">
      <path class="cls-4" d="M5.9,4.5c.6-.5,1.5-.7,2.6-.6l.5-3.7c-3-.5-5.2,0-6.7,1.7C.9,3.5.1,5.8.1,9v9.6h8.9v-9.3h-4.6c-.1-1.1,0-2,.2-2.9.2-.9.7-1.5,1.3-2Z"/>
    </clipPath>
    <clipPath id="clippath-8">
      <path class="cls-4" d="M19.1,4.5c.6-.5,1.5-.7,2.6-.6l.5-3.7c-3-.5-5.2,0-6.7,1.7-1.5,1.6-2.2,4-2.2,7.1v9.6h8.9v-9.3h-4.6c-.1-1.1,0-2,.2-2.9.2-.9.7-1.5,1.3-2Z"/>
    </clipPath>
  </defs>
  <!-- Generator: Adobe Illustrator 28.7.1, SVG Export Plug-In . SVG Version: 1.2.0 Build 142)  -->
  <g>
    <g id="logo_2">
      <g class="cls-11">
        <rect class="cls-10" x="-11.8" y="-22.4" width="161.7" height="64"/>
      </g>
      <g class="cls-5">
        <rect class="cls-10" x="-11.8" y="-22.4" width="161.7" height="64"/>
      </g>
      <g class="cls-9">
        <rect class="cls-10" x="-11.8" y="-22.4" width="161.7" height="64"/>
      </g>
      <g class="cls-8">
        <rect class="cls-10" x="-11.8" y="-22.4" width="161.7" height="64"/>
      </g>
      <g class="cls-3">
        <rect class="cls-10" x="-11.8" y="-22.4" width="161.7" height="64"/>
      </g>
      <g class="cls-6">
        <rect class="cls-10" x="-11.8" y="-22.4" width="161.7" height="64"/>
      </g>
      <g class="cls-1">
        <rect class="cls-10" x="-11.8" y="-22.4" width="161.7" height="64"/>
      </g>
      <g class="cls-2">
        <rect class="cls-10" x="-11.8" y="-22.4" width="161.7" height="64"/>
      </g>
      <g class="cls-7">
        <rect class="cls-10" x="-11.8" y="-22.4" width="161.7" height="64"/>
      </g>
    </g>
  </g>
</svg>