<?xml version="1.0" encoding="UTF-8"?><!--
  - Copyright 2024 NGApps Dev (https://github.com/ngapp-dev). All rights reserved.
  -
  - Licensed under the Apache License, Version 2.0 (the "License");
  - you may not use this file except in compliance with the License.
  - You may obtain a copy of the License at
  -
  - http://www.apache.org/licenses/LICENSE-2.0
  -
  - Unless required by applicable law or agreed to in writing, software
  - distributed under the License is distributed on an "AS IS" BASIS,
  - WITHOUT WARRANTIES OR CONDITIONS OF ANY KIND, either express or implied.
  -
  - See the License for the specific language governing permissions and
  - limitations under the License.
  -->

<svg xmlns="http://www.w3.org/2000/svg" version="1.1" viewBox="0 0 64 64">
    <defs>
        <style>
            .cls-1 {
            fill: #fff;
            }

            .cls-2 {
            fill: #e1e1e1;
            }

            .cls-3 {
            clip-path: url(#clippath-1);
            }

            .cls-4 {
            clip-path: url(#clippath);
            }

            .cls-5 {
            fill: #989898;
            }
        </style>
        <clipPath id="clippath">
            <path class="cls-1"
                d="M25.5,29.2c.2-.8.7-1.5,1.3-1.9.6-.5,1.5-.6,2.6-.5l.5-3.7c-2.9-.5-5.1,0-6.5,1.7s-2.2,3.9-2.2,7v9.4h8.7v-9h-4.5c-.1-1,0-2,.1-2.8Z" />
        </clipPath>
        <clipPath id="clippath-1">
            <path class="cls-1"
                d="M38.5,29.2c.2-.8.6-1.5,1.3-1.9.6-.5,1.5-.6,2.6-.5l.5-3.7c-2.9-.5-5,0-6.5,1.7-1.4,1.6-2.2,3.9-2.2,7v9.4h8.7v-9h-4.5c-.1-1,0-2,.2-2.8Z" />
        </clipPath>
    </defs>
    <!-- Generator: Adobe Illustrator 28.7.1, SVG Export Plug-In . SVG Version: 1.2.0 Build 142)  -->
    <g>
        <g id="Layer_4">
            <g>
                <rect class="cls-2" width="64" height="64" />
                <circle class="cls-5" cx="32" cy="32" r="19.7" />
                <g>
                    <path class="cls-1"
                        d="M25.5,29.2c.2-.8.7-1.5,1.3-1.9.6-.5,1.5-.6,2.6-.5l.5-3.7c-2.9-.5-5.1,0-6.5,1.7s-2.2,3.9-2.2,7v9.4h8.7v-9h-4.5c-.1-1,0-2,.1-2.8Z" />
                    <g class="cls-4">
                        <rect class="cls-1" x="0" width="64" height="64" />
                    </g>
                </g>
                <g>
                    <path class="cls-1"
                        d="M38.5,29.2c.2-.8.6-1.5,1.3-1.9.6-.5,1.5-.6,2.6-.5l.5-3.7c-2.9-.5-5,0-6.5,1.7-1.4,1.6-2.2,3.9-2.2,7v9.4h8.7v-9h-4.5c-.1-1,0-2,.2-2.8Z" />
                    <g class="cls-3">
                        <rect class="cls-1" x="0" width="64" height="64" />
                    </g>
                </g>
            </g>
        </g>
    </g>
</svg>